<?xml version="1.0" encoding="UTF-8" standalone="no"?>
<svg
   xmlns:dc="http://purl.org/dc/elements/1.1/"
   xmlns:cc="http://creativecommons.org/ns#"
   xmlns:rdf="http://www.w3.org/1999/02/22-rdf-syntax-ns#"
   xmlns:svg="http://www.w3.org/2000/svg"
   xmlns="http://www.w3.org/2000/svg"
   xmlns:sodipodi="http://sodipodi.sourceforge.net/DTD/sodipodi-0.dtd"
   xmlns:inkscape="http://www.inkscape.org/namespaces/inkscape"
   sodipodi:docname="armedia.svg"
   inkscape:version="1.0beta1 (fe3e306, 2019-09-17)"
   id="svg8"
   version="1.1"
   viewBox="0 0 65.263891 65.263889"
   height="185pt"
   width="185pt">
  <defs
     id="defs2">
    <inkscape:path-effect
       hide_knots="false"
       only_selected="false"
       apply_with_radius="true"
       apply_no_radius="true"
       use_knot_distance="false"
       flexible="false"
       chamfer_steps="1"
       radius="10"
       mode="F"
       method="auto"
       unit="px"
       satellites_param="F,0,0,1,0,1.5275726,0,1 @ F,0,0,1,0,1.5275726,0,1 @ F,0,0,1,0,1.5275726,0,1 @ F,0,0,1,0,1.5275726,0,1 @ F,0,0,1,0,1.5275726,0,1 @ F,0,0,1,0,1.5275726,0,1"
       is_visible="true"
       id="path-effect18"
       effect="fillet_chamfer" />
  </defs>
  <sodipodi:namedview
     inkscape:window-maximized="1"
     inkscape:window-y="0"
     inkscape:window-x="0"
     inkscape:window-height="674"
     inkscape:window-width="1366"
     units="pt"
     showgrid="false"
     inkscape:document-rotation="0"
     inkscape:current-layer="layer1"
     inkscape:document-units="mm"
     inkscape:cy="85.854787"
     inkscape:cx="-30.653876"
     inkscape:zoom="0.98994949"
     inkscape:pageshadow="2"
     inkscape:pageopacity="0.0"
     borderopacity="1.0"
     bordercolor="#666666"
     pagecolor="#ffffff"
     id="base" />
  <metadata
     id="metadata5">
    <rdf:RDF>
      <cc:Work
         rdf:about="">
        <dc:format>image/svg+xml</dc:format>
        <dc:type
           rdf:resource="http://purl.org/dc/dcmitype/StillImage" />
        <dc:title></dc:title>
      </cc:Work>
    </rdf:RDF>
  </metadata>
  <g
     id="layer1"
     inkscape:groupmode="layer"
     inkscape:label="Layer 1">
    <path
       inkscape:connector-curvature="0"
       d="m 32.653675,0.44882578 a 2.6183063,2.6183063 0 0 0 -1.33114,0.35081 L 5.7188767,15.581816 a 2.6183063,2.6183063 0 0 0 -1.309153,2.268 v 29.56488 a 2.6183063,2.6183063 0 0 0 1.309153,2.26749 l 25.6036583,14.78218 a 2.6183063,2.6183063 0 0 0 2.61831,0 l 25.60417,-14.78218 a 2.6183063,2.6183063 0 0 0 1.30915,-2.26749 v -29.56488 a 2.6183063,2.6183063 0 0 0 -1.30915,-2.268 L 33.940845,0.79963578 a 2.6183063,2.6183063 0 0 0 -1.28717,-0.35081 z M 22.268414,16.085026 h 9.438181 v 5.2e-4 h 1.31273 c 4.99905,0 9.07918,4.08076 9.07918,9.07969 -1.1e-4,4.29429 -3.0122,7.90774 -7.03005,8.8419 0.0433,0.0791 0.0866,0.15911 0.1304,0.23729 l 9.89229,18.07654 h -2.99264 l -1.43649,-2.62496 -8.4558,-15.45158 h -7.313868 v 7.81145 h -2.625468 v -7.81145 -2.62496 h 10.752956 c 3.58019,0 6.45372,-2.87408 6.45372,-6.45423 0,-3.5802 -2.87369,-6.45422 -6.45372,-6.45422 h -1.31273 -5.009559 l 5.627309,10.28298 h -2.99213 l -7.064311,-12.90845 z"
       style="fill:#ffffff;fill-opacity:1;stroke-width:10.2;stroke-linecap:square;stroke-opacity:0.142857"
       id="path7283" />
  </g>
</svg>
