<?xml version="1.0" encoding="UTF-8" standalone="no"?>
<svg
   xmlns:dc="http://purl.org/dc/elements/1.1/"
   xmlns:cc="http://creativecommons.org/ns#"
   xmlns:rdf="http://www.w3.org/1999/02/22-rdf-syntax-ns#"
   xmlns:svg="http://www.w3.org/2000/svg"
   xmlns="http://www.w3.org/2000/svg"
   xmlns:sodipodi="http://sodipodi.sourceforge.net/DTD/sodipodi-0.dtd"
   xmlns:inkscape="http://www.inkscape.org/namespaces/inkscape"
   width="200"
   height="200"
   viewBox="0 0 52.916666 52.916668"
   version="1.1"
   id="svg3312"
   inkscape:version="0.92.3 (2405546, 2018-03-11)"
   sodipodi:docname="armediatulungagung.svg">
  <defs
     id="defs3306">
    <inkscape:path-effect
       effect="fillet_chamfer"
       id="path-effect1524"
       is_visible="true"
       satellites_param="F,0,0,1,0,0,0,1 @ F,0,1,1,0,5.9568536,0,1 @ F,0,0,1,0,0,0,1 @ F,0,0,1,0,0,0,1 @ F,0,0,1,0,0,0,1 @ F,0,0,1,0,0,0,1 @ F,0,0,1,0,0,0,1 @ F,0,0,1,0,0,0,1 @ F,0,0,1,0,0,0,1 @ F,0,0,1,0,0,0,1 @ F,0,1,1,0,10.31875,0,1 @ F,0,0,1,0,0,0,1 @ F,0,0,1,0,0,0,1 @ F,0,0,1,0,0,0,1 @ F,0,0,1,0,0,0,1 @ F,0,0,1,0,0,0,1 @ F,0,1,1,0,5.9573106,0,1 @ F,0,0,1,0,0,0,1 @ F,0,0,1,0,0,0,1 @ F,0,0,1,0,0,0,1 @ F,0,0,1,0,0,0,1 @ F,0,0,1,0,0,0,1 @ F,0,0,1,0,0,0,1"
       unit="px"
       method="auto"
       mode="F"
       radius="39"
       chamfer_steps="1"
       flexible="false"
       use_knot_distance="false"
       apply_no_radius="true"
       apply_with_radius="true"
       only_selected="true"
       hide_knots="false" />
    <inkscape:path-effect
       effect="fillet_chamfer"
       id="path-effect1524-3"
       is_visible="true"
       satellites_param="F,0,0,1,0,0,0,1 @ F,0,1,1,0,5.9568536,0,1 @ F,0,0,1,0,0,0,1 @ F,0,0,1,0,0,0,1 @ F,0,0,1,0,0,0,1 @ F,0,0,1,0,0,0,1 @ F,0,0,1,0,0,0,1 @ F,0,0,1,0,0,0,1 @ F,0,0,1,0,0,0,1 @ F,0,0,1,0,0,0,1 @ F,0,1,1,0,10.31875,0,1 @ F,0,0,1,0,0,0,1 @ F,0,0,1,0,0,0,1 @ F,0,0,1,0,0,0,1 @ F,0,0,1,0,0,0,1 @ F,0,0,1,0,0,0,1 @ F,0,1,1,0,5.9573106,0,1 @ F,0,0,1,0,0,0,1 @ F,0,0,1,0,0,0,1 @ F,0,0,1,0,0,0,1 @ F,0,0,1,0,0,0,1 @ F,0,0,1,0,0,0,1 @ F,0,0,1,0,0,0,1"
       unit="px"
       method="auto"
       mode="F"
       radius="39"
       chamfer_steps="1"
       flexible="false"
       use_knot_distance="false"
       apply_no_radius="true"
       apply_with_radius="true"
       only_selected="true"
       hide_knots="false" />
    <inkscape:path-effect
       hide_knots="false"
       only_selected="true"
       apply_with_radius="true"
       apply_no_radius="true"
       use_knot_distance="false"
       flexible="false"
       chamfer_steps="1"
       radius="39"
       mode="F"
       method="auto"
       unit="px"
       satellites_param="F,0,0,1,0,0,0,1 @ F,0,1,1,0,5.9568536,0,1 @ F,0,0,1,0,0,0,1 @ F,0,0,1,0,0,0,1 @ F,0,0,1,0,0,0,1 @ F,0,0,1,0,0,0,1 @ F,0,0,1,0,0,0,1 @ F,0,0,1,0,0,0,1 @ F,0,0,1,0,0,0,1 @ F,0,0,1,0,0,0,1 @ F,0,1,1,0,10.31875,0,1 @ F,0,0,1,0,0,0,1 @ F,0,0,1,0,0,0,1 @ F,0,0,1,0,0,0,1 @ F,0,0,1,0,0,0,1 @ F,0,0,1,0,0,0,1 @ F,0,1,1,0,5.9573106,0,1 @ F,0,0,1,0,0,0,1 @ F,0,0,1,0,0,0,1 @ F,0,0,1,0,0,0,1 @ F,0,0,1,0,0,0,1 @ F,0,0,1,0,0,0,1 @ F,0,0,1,0,0,0,1"
       is_visible="true"
       id="path-effect1524-3-3"
       effect="fillet_chamfer" />
  </defs>
  <sodipodi:namedview
     id="base"
     pagecolor="#ffffff"
     bordercolor="#666666"
     borderopacity="1.0"
     inkscape:pageopacity="0.0"
     inkscape:pageshadow="2"
     inkscape:zoom="1"
     inkscape:cx="69.048933"
     inkscape:cy="110.97484"
     inkscape:document-units="mm"
     inkscape:current-layer="layer1"
     inkscape:document-rotation="0"
     showgrid="false"
     units="px"
     inkscape:window-width="1366"
     inkscape:window-height="706"
     inkscape:window-x="-8"
     inkscape:window-y="-8"
     inkscape:window-maximized="1"
     inkscape:object-paths="true"
     inkscape:snap-page="true" />
  <metadata
     id="metadata3309">
    <rdf:RDF>
      <cc:Work
         rdf:about="">
        <dc:format>image/svg+xml</dc:format>
        <dc:type
           rdf:resource="http://purl.org/dc/dcmitype/StillImage" />
        <dc:title />
      </cc:Work>
    </rdf:RDF>
  </metadata>
  <g
     inkscape:label="Layer 1"
     inkscape:groupmode="layer"
     id="layer1">
    <rect
       style="fill:none;fill-opacity:1;stroke:none;stroke-width:0.42799997;stroke-linejoin:miter;stroke-miterlimit:4;stroke-dasharray:none"
       id="rect5758"
       width="52.916664"
       height="52.916664"
       x="0"
       y="0"
       inkscape:export-xdpi="30.720003"
       inkscape:export-ydpi="30.720003" />
    <rect
       style="fill:none;fill-opacity:1;stroke:none;stroke-width:0.42799997;stroke-linejoin:miter;stroke-miterlimit:4;stroke-dasharray:none"
       id="rect5697"
       width="52.916664"
       height="52.916664"
       x="0"
       y="0"
       inkscape:export-xdpi="30.720003"
       inkscape:export-ydpi="30.720003" />
    <path
       inkscape:export-ydpi="30.720003"
       inkscape:export-xdpi="30.720003"
       inkscape:connector-curvature="0"
       id="path893"
       d="M 26.471225,1.7483286e-5 A 4.4760937,4.4760937 0 0 0 24.220503,0.59974439 L 5.1831182,11.590653 a 4.4760937,4.4760937 0 0 0 -2.2380483,3.876366 v 21.982256 a 4.4760937,4.4760937 0 0 0 2.2380483,3.876362 L 24.220503,52.316984 a 4.4760937,4.4760937 0 0 0 4.476094,0 L 47.733544,41.325637 a 4.4760937,4.4760937 0 0 0 2.238052,-3.876362 V 15.467019 A 4.4760937,4.4760937 0 0 0 47.733544,11.590653 L 28.696597,0.59974439 A 4.4760937,4.4760937 0 0 0 26.471225,1.7483286e-5 Z"
       style="opacity:1;fill:#17bc99;fill-opacity:1;stroke-width:8.62793;stroke-linecap:square;stroke-opacity:0.142857;stop-opacity:1" />
    <path
       style="color:#000000;font-style:normal;font-variant:normal;font-weight:normal;font-stretch:normal;font-size:medium;line-height:normal;font-family:sans-serif;font-variant-ligatures:normal;font-variant-position:normal;font-variant-caps:normal;font-variant-numeric:normal;font-variant-alternates:normal;font-feature-settings:normal;text-indent:0;text-align:start;text-decoration:none;text-decoration-line:none;text-decoration-style:solid;text-decoration-color:#000000;letter-spacing:normal;word-spacing:normal;text-transform:none;writing-mode:lr-tb;direction:ltr;text-orientation:mixed;dominant-baseline:auto;baseline-shift:baseline;text-anchor:start;white-space:normal;shape-padding:0;clip-rule:nonzero;display:inline;overflow:visible;visibility:visible;opacity:1;isolation:auto;mix-blend-mode:normal;color-interpolation:sRGB;color-interpolation-filters:linearRGB;solid-color:#000000;solid-opacity:1;vector-effect:none;fill:#ffffff;fill-opacity:1;fill-rule:nonzero;stroke:none;stroke-width:3.38349009;stroke-linecap:square;stroke-linejoin:miter;stroke-miterlimit:4;stroke-dasharray:none;stroke-dashoffset:0;stroke-opacity:1;color-rendering:auto;image-rendering:auto;shape-rendering:auto;text-rendering:auto;enable-background:accumulate"
       d="m 17.29326,14.41338 5.622396,9.73584 h -10e-4 l 1.014409,1.755965 h 1.333768 2.572452 l -4.680333,-8.108549 h 4.237468 c 2.697308,0 4.847249,2.149936 4.847249,4.847249 0,2.547795 -1.918563,4.607991 -4.404384,4.828646 v 0.01964 H 27.39242 20.67655 v -4.134114 l -3.383256,4.134114 v 3.383773 1.178222 1.768885 h 3.383256 v -0.698664 -2.248443 h 6.122107 l 3.573426,6.189803 0.543118,0.940512 h 5.16e-4 l 5.19e-4,0.0015 0.286287,0.495575 h 3.907256 l -0.286806,-0.496609 -4.444172,-7.697206 c 3.060925,-1.20305 5.24464,-4.192084 5.24464,-7.665681 0,-4.525894 -3.70513,-8.230505 -8.231021,-8.230505 z"
       id="path1460"
       inkscape:connector-curvature="0"
       inkscape:export-xdpi="30.720003"
       inkscape:export-ydpi="30.720003" />
    <path
       style="fill:none;fill-opacity:1;stroke:none;stroke-width:0.57192129;stroke-linejoin:miter;stroke-miterlimit:4;stroke-dasharray:none"
       d="M 95.591802,199.24802 C 93.350822,198.62309 94.75841,199.41435 51.397629,174.40497 14.502829,153.125 15.359545,153.69989 12.915512,148.58196 l -1.292638,-2.70685 -0.104921,-44.90128 c -0.09576,-40.980729 -0.0535,-45.095111 0.483966,-47.121191 0.726921,-2.740265 2.651583,-5.779276 4.950134,-7.816185 C 19.29815,43.957408 92.6213,1.6296174 95.238249,0.84360894 98.012773,0.01027248 102.63652,0.09516341 105.24283,1.0272909 c 3.249,1.1619805 75.6478,43.0604861 77.86468,45.0617111 2.31621,2.090897 3.9272,4.562957 4.799,7.364058 0.64239,2.063995 0.66983,3.967042 0.66983,46.454368 0,43.371542 -0.0149,44.350522 -0.71038,46.602172 -0.86307,2.79429 -3.01046,6.10176 -5.03666,7.7576 -1.89957,1.55237 -74.77781,43.65312 -77.16123,44.57498 -2.39477,0.92625 -7.476141,1.13091 -10.076268,0.40584 z m 41.558308,-47.80444 c -0.13015,-0.3403 -5.71564,-10.10615 -12.41219,-21.7019 -6.69656,-11.59576 -12.17556,-21.17918 -12.17556,-21.29651 0,-0.11732 0.99437,-0.71405 2.20971,-1.32607 3.08524,-1.55364 5.03166,-2.93363 7.64177,-5.41789 8.62869,-8.212653 11.77386,-20.626163 8.11202,-32.016854 -3.39235,-10.552405 -12.58109,-18.824773 -23.34028,-21.012611 -2.2923,-0.466132 -6.04064,-0.554145 -23.599687,-0.554145 -11.481006,0 -20.874555,0.08677 -20.874555,0.192821 0,0.106051 5.599942,9.890641 12.444315,21.743533 l 12.444319,21.550712 h 7.552314 c 4.153775,0 7.482094,-0.119325 7.396274,-0.265166 -2.46834,-4.194472 -17.209806,-29.882109 -17.209806,-29.988822 0,-0.08338 4.0968,-0.149715 9.104,-0.147407 9.837896,0.0045 11.184016,0.18341 14.891326,1.9788 2.73475,1.32439 6.39087,5.081746 7.75005,7.964628 4.02778,8.543119 1.32905,18.329126 -6.44081,23.355298 -4.13093,2.67222 -4.79262,2.759523 -20.915494,2.759523 H 75.453048 l -0.09528,-7.659749 -0.09528,-7.659744 -6.455295,7.886945 -6.455294,7.886949 0.09133,19.660179 0.09133,19.66018 6.448089,0.0963 6.448092,0.0964 0.09265,-13.3546 0.09265,-13.3546 H 87.064335 98.51263 l 9.49864,16.44023 c 5.22425,9.04213 10.62218,18.3892 11.99539,20.77126 l 2.49675,4.33103 h 7.44167 c 6.94176,0 7.42578,-0.0416 7.20503,-0.61871 z"
       id="path5723"
       inkscape:connector-curvature="0"
       transform="scale(0.26458333)"
       inkscape:export-xdpi="30.720003"
       inkscape:export-ydpi="30.720003" />
    <path
       style="fill:none;fill-opacity:1;stroke:none;stroke-width:0.57192129;stroke-linejoin:miter;stroke-miterlimit:4;stroke-dasharray:none"
       d="M 95.591802,199.24802 C 93.350822,198.62309 94.75841,199.41435 51.397629,174.40497 14.502829,153.125 15.359545,153.69989 12.915512,148.58196 l -1.292638,-2.70685 -0.104921,-44.90128 c -0.09576,-40.980729 -0.0535,-45.095111 0.483966,-47.121191 0.726921,-2.740265 2.651583,-5.779276 4.950134,-7.816185 C 19.29815,43.957408 92.6213,1.6296174 95.238249,0.84360894 98.012773,0.01027248 102.63652,0.09516341 105.24283,1.0272909 c 3.249,1.1619805 75.6478,43.0604861 77.86468,45.0617111 2.31621,2.090897 3.9272,4.562957 4.799,7.364058 0.64239,2.063995 0.66983,3.967042 0.66983,46.454368 0,43.371542 -0.0149,44.350522 -0.71038,46.602172 -0.86307,2.79429 -3.01046,6.10176 -5.03666,7.7576 -1.89957,1.55237 -74.77781,43.65312 -77.16123,44.57498 -2.39477,0.92625 -7.476141,1.13091 -10.076268,0.40584 z m 41.558308,-47.80444 c -0.13015,-0.3403 -5.71564,-10.10615 -12.41219,-21.7019 -6.69656,-11.59576 -12.17556,-21.17918 -12.17556,-21.29651 0,-0.11732 0.99437,-0.71405 2.20971,-1.32607 3.08524,-1.55364 5.03166,-2.93363 7.64177,-5.41789 8.62869,-8.212653 11.77386,-20.626163 8.11202,-32.016854 -3.39235,-10.552405 -12.58109,-18.824773 -23.34028,-21.012611 -2.2923,-0.466132 -6.04064,-0.554145 -23.599687,-0.554145 -11.481006,0 -20.874555,0.08677 -20.874555,0.192821 0,0.106051 5.599942,9.890641 12.444315,21.743533 l 12.444319,21.550712 h 7.552314 c 4.153775,0 7.482094,-0.119325 7.396274,-0.265166 -2.46834,-4.194472 -17.209806,-29.882109 -17.209806,-29.988822 0,-0.08338 4.0968,-0.149715 9.104,-0.147407 9.837896,0.0045 11.184016,0.18341 14.891326,1.9788 2.73475,1.32439 6.39087,5.081746 7.75005,7.964628 4.02778,8.543119 1.32905,18.329126 -6.44081,23.355298 -4.13093,2.67222 -4.79262,2.759523 -20.915494,2.759523 H 75.453048 l -0.09528,-7.659749 -0.09528,-7.659744 -6.455295,7.886945 -6.455294,7.886949 0.09133,19.660179 0.09133,19.66018 6.448089,0.0963 6.448092,0.0964 0.09265,-13.3546 0.09265,-13.3546 H 87.064335 98.51263 l 9.49864,16.44023 c 5.22425,9.04213 10.62218,18.3892 11.99539,20.77126 l 2.49675,4.33103 h 7.44167 c 6.94176,0 7.42578,-0.0416 7.20503,-0.61871 z"
       id="path5725"
       inkscape:connector-curvature="0"
       transform="scale(0.26458333)"
       inkscape:export-xdpi="30.720003"
       inkscape:export-ydpi="30.720003" />
    <path
       style="fill:none;fill-opacity:1;stroke:none;stroke-width:0.57192129;stroke-linejoin:miter;stroke-miterlimit:4;stroke-dasharray:none"
       d="M 95.591802,199.24802 C 93.350822,198.62309 94.75841,199.41435 51.397629,174.40497 14.502829,153.125 15.359545,153.69989 12.915512,148.58196 l -1.292638,-2.70685 -0.104921,-44.90128 c -0.09576,-40.980729 -0.0535,-45.095111 0.483966,-47.121191 0.726921,-2.740265 2.651583,-5.779276 4.950134,-7.816185 C 19.29815,43.957408 92.6213,1.6296174 95.238249,0.84360894 98.012773,0.01027248 102.63652,0.09516341 105.24283,1.0272909 c 3.249,1.1619805 75.6478,43.0604861 77.86468,45.0617111 2.31621,2.090897 3.9272,4.562957 4.799,7.364058 0.64239,2.063995 0.66983,3.967042 0.66983,46.454368 0,43.371542 -0.0149,44.350522 -0.71038,46.602172 -0.86307,2.79429 -3.01046,6.10176 -5.03666,7.7576 -1.89957,1.55237 -74.77781,43.65312 -77.16123,44.57498 -2.39477,0.92625 -7.476141,1.13091 -10.076268,0.40584 z m 41.558308,-47.80444 c -0.13015,-0.3403 -5.71564,-10.10615 -12.41219,-21.7019 -6.69656,-11.59576 -12.17556,-21.17918 -12.17556,-21.29651 0,-0.11732 0.99437,-0.71405 2.20971,-1.32607 3.08524,-1.55364 5.03166,-2.93363 7.64177,-5.41789 8.62869,-8.212653 11.77386,-20.626163 8.11202,-32.016854 -3.39235,-10.552405 -12.58109,-18.824773 -23.34028,-21.012611 -2.2923,-0.466132 -6.04064,-0.554145 -23.599687,-0.554145 -11.481006,0 -20.874555,0.08677 -20.874555,0.192821 0,0.106051 5.599942,9.890641 12.444315,21.743533 l 12.444319,21.550712 h 7.552314 c 4.153775,0 7.482094,-0.119325 7.396274,-0.265166 -2.46834,-4.194472 -17.209806,-29.882109 -17.209806,-29.988822 0,-0.08338 4.0968,-0.149715 9.104,-0.147407 9.837896,0.0045 11.184016,0.18341 14.891326,1.9788 2.73475,1.32439 6.39087,5.081746 7.75005,7.964628 4.02778,8.543119 1.32905,18.329126 -6.44081,23.355298 -4.13093,2.67222 -4.79262,2.759523 -20.915494,2.759523 H 75.453048 l -0.09528,-7.659749 -0.09528,-7.659744 -6.455295,7.886945 -6.455294,7.886949 0.09133,19.660179 0.09133,19.66018 6.448089,0.0963 6.448092,0.0964 0.09265,-13.3546 0.09265,-13.3546 H 87.064335 98.51263 l 9.49864,16.44023 c 5.22425,9.04213 10.62218,18.3892 11.99539,20.77126 l 2.49675,4.33103 h 7.44167 c 6.94176,0 7.42578,-0.0416 7.20503,-0.61871 z"
       id="path5727"
       inkscape:connector-curvature="0"
       transform="scale(0.26458333)"
       inkscape:export-xdpi="30.720003"
       inkscape:export-ydpi="30.720003" />
    <path
       style="fill:#ffffff;fill-opacity:1;stroke:none;stroke-width:3.10006928;stroke-linejoin:miter;stroke-miterlimit:4;stroke-dasharray:none"
       d="M 77.884766 62.25 L 78.148438 62.705078 L 78.148438 62.25 L 77.884766 62.25 z M 65.361328 66.136719 L 65.361328 103.9082 L 78.148438 103.9082 L 78.148438 88.283203 L 77.066406 86.410156 L 77.064453 86.404297 L 77.0625 86.404297 L 75.009766 82.849609 L 65.361328 66.136719 z "
       transform="scale(0.26458333)"
       id="rect5735"
       inkscape:export-xdpi="30.720003"
       inkscape:export-ydpi="30.720003" />
  </g>
</svg>
