<?xml version="1.0" encoding="UTF-8" standalone="no"?>
<!-- Created with Inkscape (http://www.inkscape.org/) -->

<svg
   xmlns:dc="http://purl.org/dc/elements/1.1/"
   xmlns:cc="http://creativecommons.org/ns#"
   xmlns:rdf="http://www.w3.org/1999/02/22-rdf-syntax-ns#"
   xmlns:svg="http://www.w3.org/2000/svg"
   xmlns="http://www.w3.org/2000/svg"
   xmlns:sodipodi="http://sodipodi.sourceforge.net/DTD/sodipodi-0.dtd"
   xmlns:inkscape="http://www.inkscape.org/namespaces/inkscape"
   width="160"
   height="250"
   viewBox="0 0 42.333332 66.145835"
   version="1.1"
   id="svg6000"
   inkscape:version="0.92.1 r15371"
   sodipodi:docname="ARstudioV.svg">
  <defs
     id="defs5994" />
  <sodipodi:namedview
     id="base"
     pagecolor="#ffffff"
     bordercolor="#666666"
     borderopacity="1.0"
     inkscape:pageopacity="0.0"
     inkscape:pageshadow="2"
     inkscape:zoom="0.49497475"
     inkscape:cx="-28.422403"
     inkscape:cy="297.17324"
     inkscape:document-units="mm"
     inkscape:current-layer="layer1"
     showgrid="false"
     inkscape:window-width="1366"
     inkscape:window-height="674"
     inkscape:window-x="0"
     inkscape:window-y="0"
     inkscape:window-maximized="1"
     inkscape:snap-bbox="true"
     inkscape:bbox-paths="false"
     inkscape:bbox-nodes="false"
     units="px"
     inkscape:snap-grids="false"
     inkscape:object-paths="true"
     inkscape:snap-intersection-paths="true"
     inkscape:snap-smooth-nodes="true"
     inkscape:snap-global="true"
     inkscape:snap-midpoints="true"
     inkscape:object-nodes="true">
    <inkscape:grid
       type="xygrid"
       id="grid6903" />
  </sodipodi:namedview>
  <metadata
     id="metadata5997">
    <rdf:RDF>
      <cc:Work
         rdf:about="">
        <dc:format>image/svg+xml</dc:format>
        <dc:type
           rdf:resource="http://purl.org/dc/dcmitype/StillImage" />
        <dc:title />
      </cc:Work>
    </rdf:RDF>
  </metadata>
  <g
     inkscape:label="Layer 1"
     inkscape:groupmode="layer"
     id="layer1"
     transform="translate(0,-230.85415)">
    <g
       id="g5084"
       transform="translate(-100.04015,-84.886933)">
      <path
         sodipodi:nodetypes="ccccccccccccccccccccccccccccccccccccccccccccccccccc"
         inkscape:connector-curvature="0"
         id="path5047"
         transform="matrix(0.26458333,0,0,0.26458333,0,230.85415)"
         d="m 392.24026,367.20508 7.92578,13.86914 h 20.44919 13.02344 4.39063 l -3.14063,5.49805 -12.04297,21.07617 -5.92773,10.375 -9.49805,16.62109 -1.39258,2.4375 -1.39257,2.4375 -12.04297,21.07617 -5.92774,10.375 -5.22851,9.15039 h 15.97461 l 0.66406,-1.16211 4.56445,-7.98828 1.9961,-3.49414 17.36718,-30.39453 1.39258,-2.4375 3.68555,-6.44922 h 19.58008 l 19.11523,33.45508 1.99609,3.49414 4.56446,7.98828 3.99414,6.98828 h 15.97461 l -8.5586,-14.97656 -5.92773,-10.375 -12.04297,-21.07617 -11.06641,-19.36719 h -15.9746 -3.73047 l 19,-33.25195 h 23.73828 9.72656 v -0.0312 h 0.002 c 17.52106,-3e-4 33.4632,15.94176 33.46289,33.46289 2.7e-4,16.81708 -14.68828,32.16988 -31.36132,33.37695 l 4.49804,7.8711 2.85742,5 11.06641,19.36718 h 15.97461 l -13.83008,-24.20117 c 15.15397,-8.27369 24.59632,-24.14667 24.63477,-41.41211 2e-4,-26.12466 -21.17808,-47.30293 -47.30274,-47.30273 h -0.002 -9.72656 -31.78711 z"
         style="color:#000000;font-style:normal;font-variant:normal;font-weight:normal;font-stretch:normal;font-size:medium;line-height:normal;font-family:sans-serif;font-variant-ligatures:normal;font-variant-position:normal;font-variant-caps:normal;font-variant-numeric:normal;font-variant-alternates:normal;font-feature-settings:normal;text-indent:0;text-align:start;text-decoration:none;text-decoration-line:none;text-decoration-style:solid;text-decoration-color:#000000;letter-spacing:normal;word-spacing:normal;text-transform:none;writing-mode:lr-tb;direction:ltr;text-orientation:mixed;dominant-baseline:auto;baseline-shift:baseline;text-anchor:start;white-space:normal;shape-padding:0;clip-rule:nonzero;display:inline;overflow:visible;visibility:visible;opacity:1;isolation:auto;mix-blend-mode:normal;color-interpolation:sRGB;color-interpolation-filters:linearRGB;solid-color:#000000;solid-opacity:1;vector-effect:none;fill:#000000;fill-opacity:1;fill-rule:nonzero;stroke:none;stroke-width:10;stroke-linecap:butt;stroke-linejoin:miter;stroke-miterlimit:4;stroke-dasharray:none;stroke-dashoffset:0;stroke-opacity:1;color-rendering:auto;image-rendering:auto;shape-rendering:auto;text-rendering:auto;enable-background:accumulate" />
      <g
         transform="matrix(1.0288907,0,0,1.0288907,117.30144,247.99497)"
         id="g5067"
         style="font-style:normal;font-weight:normal;font-size:9.69071293px;line-height:1.25;font-family:sans-serif;letter-spacing:0px;word-spacing:0px;fill:#000000;fill-opacity:1;stroke:none;stroke-width:0.25715396"
         aria-label="studio">
        <path
           inkscape:connector-curvature="0"
           id="path5055"
           style="font-style:normal;font-variant:normal;font-weight:normal;font-stretch:normal;font-family:'URW Gothic L';-inkscape-font-specification:'URW Gothic L';letter-spacing:2.42267823px;fill:#000000;stroke-width:0.25715396"
           d="m -15.920021,116.52125 c 0.0097,1.02722 0.688041,1.68619 1.705565,1.68619 0.94969,0 1.61835,-0.67835 1.61835,-1.64742 0,-0.64928 -0.300413,-1.09505 -0.920618,-1.3567 -0.804329,-0.32949 -0.843092,-0.34887 -0.998144,-0.42639 -0.329484,-0.16475 -0.484535,-0.38763 -0.484535,-0.69774 0,-0.42639 0.339175,-0.76556 0.765566,-0.76556 0.465154,0 0.736494,0.27134 0.775257,0.77526 h 0.726804 c -0.02907,-0.85279 -0.639587,-1.43423 -1.49237,-1.43423 -0.862474,0 -1.502061,0.6299 -1.502061,1.49237 0,0.37794 0.13567,0.70742 0.39732,0.94969 0.222886,0.2035 0.232577,0.2035 0.978762,0.51361 0.319793,0.12598 0.55237,0.24227 0.68804,0.32948 0.213196,0.14536 0.339175,0.39732 0.339175,0.68804 0,0.53299 -0.377938,0.92062 -0.891546,0.92062 -0.591133,0 -0.95938,-0.37794 -0.998143,-1.02722 z" />
        <path
           inkscape:connector-curvature="0"
           id="path5057"
           style="font-style:normal;font-variant:normal;font-weight:normal;font-stretch:normal;font-family:'URW Gothic L';-inkscape-font-specification:'URW Gothic L';letter-spacing:2.42267823px;fill:#000000;stroke-width:0.25715396"
           d="m -8.645475,118.08146 h 0.7171127 v -4.65154 h 1.1919577 v -0.64928 h -1.1919577 v -1.86062 H -8.645475 v 1.86062 h -1.1435042 v 0.64928 h 1.1435042 z" />
        <path
           inkscape:connector-curvature="0"
           id="path5059"
           style="font-style:normal;font-variant:normal;font-weight:normal;font-stretch:normal;font-family:'URW Gothic L';-inkscape-font-specification:'URW Gothic L';letter-spacing:2.42267823px;fill:#000000;stroke-width:0.25715396"
           d="M 1.0921771,112.78064 H 0.37506435 v 2.72309 c 0,0.64928 -0.0969071,1.05629 -0.31979352,1.38577 -0.3004121,0.4167 -0.77525704,0.65897 -1.32762763,0.65897 -0.5911335,0 -1.0950506,-0.24227 -1.3373184,-0.66866 -0.1647421,-0.27134 -0.2519586,-0.69773 -0.2519586,-1.24041 v -2.85876 h -0.7171127 v 2.85876 c 0,0.78495 0.13567,1.33732 0.4167006,1.72495 0.3973193,0.55237 1.0369063,0.84309 1.8315448,0.84309 0.82371058,0 1.34700907,-0.29072 1.70556545,-0.94969 v 0.82371 H 1.0921771 Z" />
        <path
           inkscape:connector-curvature="0"
           id="path5061"
           style="font-style:normal;font-variant:normal;font-weight:normal;font-stretch:normal;font-family:'URW Gothic L';-inkscape-font-specification:'URW Gothic L';letter-spacing:2.42267823px;fill:#000000;stroke-width:0.25715396"
           d="M 10.147392,110.92002 H 9.4302788 v 2.70371 c -0.5232985,-0.6299 -1.2501019,-0.96907 -2.0835033,-0.96907 -1.5989676,0 -2.8199974,1.20165 -2.8199974,2.78123 0,1.5699 1.250102,2.77155 2.8878324,2.77155 0.8818549,0 1.4826791,-0.3198 2.0156683,-1.08536 v 0.95938 h 0.7171132 z m -2.8199979,2.39361 c 1.1725763,0 2.1319569,0.94 2.1319569,2.10288 0,1.16289 -0.9303085,2.13196 -2.0641219,2.13196 -1.2113391,0 -2.1416475,-0.93031 -2.1416475,-2.14165 0,-1.16288 0.9206177,-2.09319 2.0738125,-2.09319 z" />
        <path
           inkscape:connector-curvature="0"
           id="path5063"
           style="font-style:normal;font-variant:normal;font-weight:normal;font-stretch:normal;font-family:'URW Gothic L';-inkscape-font-specification:'URW Gothic L';letter-spacing:2.42267823px;fill:#000000;stroke-width:0.25715396"
           d="m 13.796399,118.08146 h 0.717113 v -5.30082 h -0.717113 z m 0,-5.94041 h 0.717113 v -1.22103 h -0.717113 z" />
        <path
           inkscape:connector-curvature="0"
           id="path5065"
           style="font-style:normal;font-variant:normal;font-weight:normal;font-stretch:normal;font-family:'URW Gothic L';-inkscape-font-specification:'URW Gothic L';letter-spacing:2.42267823px;fill:#000000;stroke-width:0.25715396"
           d="m 20.727378,112.65466 c -1.569896,0 -2.781235,1.19196 -2.781235,2.74247 0,1.62804 1.191958,2.81031 2.839379,2.81031 1.550514,0 2.694018,-1.17258 2.694018,-2.76185 0,-1.61835 -1.162885,-2.79093 -2.752162,-2.79093 z m 0,0.65897 c 1.162885,0 2.025359,0.91093 2.025359,2.14165 0,1.21133 -0.833402,2.09319 -1.986597,2.09319 -1.221029,0 -2.093194,-0.89155 -2.093194,-2.13196 0,-1.20165 0.881855,-2.10288 2.054432,-2.10288 z" />
      </g>
    </g>
  </g>
</svg>
