<?xml version="1.0" encoding="UTF-8" standalone="no"?>
<!-- Created with Inkscape (http://www.inkscape.org/) -->

<svg
   xmlns:dc="http://purl.org/dc/elements/1.1/"
   xmlns:cc="http://creativecommons.org/ns#"
   xmlns:rdf="http://www.w3.org/1999/02/22-rdf-syntax-ns#"
   xmlns:svg="http://www.w3.org/2000/svg"
   xmlns="http://www.w3.org/2000/svg"
   xmlns:sodipodi="http://sodipodi.sourceforge.net/DTD/sodipodi-0.dtd"
   xmlns:inkscape="http://www.inkscape.org/namespaces/inkscape"
   width="160"
   height="160"
   viewBox="0 0 42.333332 42.333334"
   version="1.1"
   id="svg6000"
   inkscape:version="0.92.1 r15371"
   sodipodi:docname="ARstudioV.svg">
  <defs
     id="defs5994" />
  <sodipodi:namedview
     id="base"
     pagecolor="#ffffff"
     bordercolor="#666666"
     borderopacity="1.0"
     inkscape:pageopacity="0.0"
     inkscape:pageshadow="2"
     inkscape:zoom="1.4"
     inkscape:cx="38.617077"
     inkscape:cy="80.881412"
     inkscape:document-units="mm"
     inkscape:current-layer="layer1"
     showgrid="false"
     inkscape:window-width="1366"
     inkscape:window-height="674"
     inkscape:window-x="0"
     inkscape:window-y="0"
     inkscape:window-maximized="1"
     inkscape:snap-bbox="true"
     inkscape:bbox-paths="false"
     inkscape:bbox-nodes="false"
     units="px"
     inkscape:snap-grids="false"
     inkscape:object-paths="true"
     inkscape:snap-intersection-paths="true"
     inkscape:snap-smooth-nodes="true"
     inkscape:snap-global="true"
     inkscape:snap-midpoints="false"
     inkscape:object-nodes="true"
     showguides="false">
    <inkscape:grid
       type="xygrid"
       id="grid6903" />
  </sodipodi:namedview>
  <metadata
     id="metadata5997">
    <rdf:RDF>
      <cc:Work
         rdf:about="">
        <dc:format>image/svg+xml</dc:format>
        <dc:type
           rdf:resource="http://purl.org/dc/dcmitype/StillImage" />
        <dc:title></dc:title>
      </cc:Work>
    </rdf:RDF>
  </metadata>
  <g
     inkscape:label="Layer 1"
     inkscape:groupmode="layer"
     id="layer1"
     transform="translate(0,-254.66665)">
    <g
       transform="matrix(0.68041117,0,0,0.68041117,-287.25631,196.32024)"
       id="g5818"
       style="stroke-width:1.46969962">
      <path
         style="color:#000000;font-style:normal;font-variant:normal;font-weight:normal;font-stretch:normal;font-size:medium;line-height:normal;font-family:sans-serif;font-variant-ligatures:normal;font-variant-position:normal;font-variant-caps:normal;font-variant-numeric:normal;font-variant-alternates:normal;font-feature-settings:normal;text-indent:0;text-align:start;text-decoration:none;text-decoration-line:none;text-decoration-style:solid;text-decoration-color:#000000;letter-spacing:normal;word-spacing:normal;text-transform:none;writing-mode:lr-tb;direction:ltr;text-orientation:mixed;dominant-baseline:auto;baseline-shift:baseline;text-anchor:start;white-space:normal;shape-padding:0;clip-rule:nonzero;display:inline;overflow:visible;visibility:visible;opacity:1;isolation:auto;mix-blend-mode:normal;color-interpolation:sRGB;color-interpolation-filters:linearRGB;solid-color:#000000;solid-opacity:1;vector-effect:none;fill:#000000;fill-opacity:1;fill-rule:nonzero;stroke:none;stroke-width:2.939399;stroke-linecap:square;stroke-linejoin:miter;stroke-miterlimit:4;stroke-dasharray:none;stroke-dashoffset:0;stroke-opacity:1;paint-order:normal;color-rendering:auto;image-rendering:auto;shape-rendering:auto;text-rendering:auto;enable-background:accumulate"
         d="m 437.19421,86.999495 9.8e-4,9.35e-4 9.96384,18.20649 h 4.22036 L 443.442,90.70315 h 11.28609 1.85136 c 5.04938,0 9.10275,4.054168 9.10275,9.103741 0,5.049529 -4.05316,9.102739 -9.10275,9.102739 h -3.17361 -4.22033 -8.2895 -1.85138 -1.85134 v 3.70273 11.01727 h 3.70272 v -11.01727 h 10.31593 l 13.95174,25.49521 h 4.22125 l -13.95266,-25.49521 h 1.14718 c 7.05058,0 12.80533,-5.7549 12.80548,-12.805469 0,-7.050585 -5.7547,-12.806461 -12.80548,-12.806461 h -1.85136 v -9.35e-4 z"
         id="path5763"
         inkscape:connector-curvature="0" />
      <g
         aria-label="19"
         style="font-style:normal;font-weight:normal;font-size:10.58333302px;line-height:1.25;font-family:sans-serif;letter-spacing:0px;word-spacing:0px;fill:#000000;fill-opacity:1;stroke:none;stroke-width:0.32152915"
         id="g5769"
         transform="matrix(1.209402,0,0,1.209402,427.6133,-206.53916)">
        <path
           d="m 9.2547498,284.97284 h 0.7725832 v -7.82108 H 7.9212499 v 0.70908 h 1.3334999 z"
           style="font-style:normal;font-variant:normal;font-weight:normal;font-stretch:normal;font-family:'URW Gothic L';-inkscape-font-specification:'URW Gothic L';stroke-width:0.32152915"
           id="path5765"
           inkscape:connector-curvature="0" />
        <path
           d="m 14.881776,284.97284 1.936749,-2.87867 c 0.740834,-1.11125 0.931334,-1.5875 0.931334,-2.36008 0,-1.55575 -1.153583,-2.71992 -2.69875,-2.71992 -1.524,0 -2.63525,1.17475 -2.63525,2.77284 0,1.50283 1.100667,2.68816 2.487083,2.68816 0.328084,0 0.5715,-0.0635 0.92075,-0.22225 l -1.8415,2.71992 z m 0.169333,-7.24958 c 1.100667,0 1.915583,0.86783 1.915583,2.05316 0,1.12184 -0.8255,1.98967 -1.894416,1.98967 -1.090084,0 -1.87325,-0.84667 -1.87325,-2.01083 0,-1.18534 0.783166,-2.032 1.852083,-2.032 z"
           style="font-style:normal;font-variant:normal;font-weight:normal;font-stretch:normal;font-family:'URW Gothic L';-inkscape-font-specification:'URW Gothic L';stroke-width:0.32152915"
           id="path5767"
           inkscape:connector-curvature="0" />
      </g>
      <g
         aria-label="studio"
         style="font-style:normal;font-weight:normal;font-size:3.43383813px;line-height:1.25;font-family:sans-serif;letter-spacing:0px;word-spacing:0px;fill:#000000;fill-opacity:1;stroke:none;stroke-width:0.27659506"
         id="g5783"
         transform="matrix(1.4058747,0,0,1.4058747,-497.05538,-91.116911)">
        <path
           d="m 664.53202,168.57697 c 0.003,0.36399 0.24381,0.59749 0.60436,0.59749 0.33652,0 0.57345,-0.24037 0.57345,-0.58375 0,-0.23007 -0.10645,-0.38802 -0.32621,-0.48074 -0.28501,-0.11675 -0.29875,-0.12362 -0.35369,-0.15109 -0.11675,-0.0584 -0.17169,-0.13735 -0.17169,-0.24723 0,-0.15109 0.12018,-0.27128 0.27127,-0.27128 0.16483,0 0.26097,0.0961 0.27471,0.27471 h 0.25754 c -0.0103,-0.30218 -0.22664,-0.50821 -0.52881,-0.50821 -0.30562,0 -0.53225,0.2232 -0.53225,0.52881 0,0.13392 0.0481,0.25067 0.14079,0.33652 0.079,0.0721 0.0824,0.0721 0.34682,0.18199 0.11331,0.0446 0.19572,0.0858 0.2438,0.11675 0.0755,0.0515 0.12018,0.14079 0.12018,0.24381 0,0.18886 -0.13392,0.32621 -0.31591,0.32621 -0.20946,0 -0.33995,-0.13392 -0.35369,-0.36399 z"
           style="font-style:normal;font-variant:normal;font-weight:normal;font-stretch:normal;font-family:'URW Gothic L';-inkscape-font-specification:'URW Gothic L';letter-spacing:2.64583325px;stroke-width:0.27659506"
           id="path5771"
           inkscape:connector-curvature="0" />
        <path
           d="m 668.89708,169.12982 h 0.25411 v -1.64824 h 0.42236 v -0.23007 h -0.42236 v -0.65929 h -0.25411 v 0.65929 h -0.40519 v 0.23007 h 0.40519 z"
           style="font-style:normal;font-variant:normal;font-weight:normal;font-stretch:normal;font-family:'URW Gothic L';-inkscape-font-specification:'URW Gothic L';letter-spacing:2.64583325px;stroke-width:0.27659506"
           id="path5773"
           inkscape:connector-curvature="0" />
        <path
           d="m 674.13493,167.25151 h -0.25411 v 0.96491 c 0,0.23007 -0.0343,0.37429 -0.11331,0.49104 -0.10645,0.14765 -0.27471,0.2335 -0.47044,0.2335 -0.20946,0 -0.38802,-0.0858 -0.47387,-0.23693 -0.0584,-0.0961 -0.0893,-0.24724 -0.0893,-0.43954 v -1.01298 h -0.2541 v 1.01298 c 0,0.27815 0.0481,0.47387 0.14765,0.61123 0.14079,0.19573 0.36742,0.29874 0.649,0.29874 0.29187,0 0.4773,-0.10301 0.60435,-0.33651 v 0.29187 h 0.25411 z"
           style="font-style:normal;font-variant:normal;font-weight:normal;font-stretch:normal;font-family:'URW Gothic L';-inkscape-font-specification:'URW Gothic L';letter-spacing:2.64583325px;stroke-width:0.27659506"
           id="path5775"
           inkscape:connector-curvature="0" />
        <path
           d="m 679.13095,166.59222 h -0.2541 v 0.95804 c -0.18543,-0.2232 -0.44296,-0.34339 -0.73827,-0.34339 -0.56659,0 -0.99925,0.4258 -0.99925,0.98551 0,0.55629 0.44296,0.98208 1.02328,0.98208 0.31248,0 0.52538,-0.11331 0.71424,-0.38459 v 0.33995 h 0.2541 z m -0.99924,0.84815 c 0.41549,0 0.75544,0.33309 0.75544,0.74515 0,0.41206 -0.32965,0.75544 -0.73141,0.75544 -0.42922,0 -0.75887,-0.32965 -0.75887,-0.75888 0,-0.41206 0.32621,-0.74171 0.73484,-0.74171 z"
           style="font-style:normal;font-variant:normal;font-weight:normal;font-stretch:normal;font-family:'URW Gothic L';-inkscape-font-specification:'URW Gothic L';letter-spacing:2.64583325px;stroke-width:0.27659506"
           id="path5777"
           inkscape:connector-curvature="0" />
        <path
           d="m 682.21133,169.12982 h 0.2541 v -1.87831 h -0.2541 z m 0,-2.10494 h 0.2541 v -0.43266 h -0.2541 z"
           style="font-style:normal;font-variant:normal;font-weight:normal;font-stretch:normal;font-family:'URW Gothic L';-inkscape-font-specification:'URW Gothic L';letter-spacing:2.64583325px;stroke-width:0.27659506"
           id="path5779"
           inkscape:connector-curvature="0" />
        <path
           d="m 686.45465,167.20687 c -0.55628,0 -0.98551,0.42236 -0.98551,0.97178 0,0.57688 0.42236,0.99581 1.00611,0.99581 0.54942,0 0.95461,-0.41549 0.95461,-0.97864 0,-0.57345 -0.41206,-0.98895 -0.97521,-0.98895 z m 0,0.2335 c 0.41206,0 0.71767,0.32278 0.71767,0.75888 0,0.42923 -0.29531,0.74171 -0.70394,0.74171 -0.43266,0 -0.7417,-0.31591 -0.7417,-0.75544 0,-0.4258 0.31248,-0.74515 0.72797,-0.74515 z"
           style="font-style:normal;font-variant:normal;font-weight:normal;font-stretch:normal;font-family:'URW Gothic L';-inkscape-font-specification:'URW Gothic L';letter-spacing:2.64583325px;stroke-width:0.27659506"
           id="path5781"
           inkscape:connector-curvature="0" />
      </g>
      <path
         style="color:#000000;font-style:normal;font-variant:normal;font-weight:normal;font-stretch:normal;font-size:medium;line-height:normal;font-family:sans-serif;font-variant-ligatures:normal;font-variant-position:normal;font-variant-caps:normal;font-variant-numeric:normal;font-variant-alternates:normal;font-feature-settings:normal;text-indent:0;text-align:start;text-decoration:none;text-decoration-line:none;text-decoration-style:solid;text-decoration-color:#000000;letter-spacing:normal;word-spacing:normal;text-transform:none;writing-mode:lr-tb;direction:ltr;text-orientation:mixed;dominant-baseline:auto;baseline-shift:baseline;text-anchor:start;white-space:normal;shape-padding:0;clip-rule:nonzero;display:inline;overflow:visible;visibility:visible;opacity:1;isolation:auto;mix-blend-mode:normal;color-interpolation:sRGB;color-interpolation-filters:linearRGB;solid-color:#000000;solid-opacity:1;vector-effect:none;fill:#000000;fill-opacity:1;fill-rule:nonzero;stroke:none;stroke-width:0.38885799px;stroke-linecap:butt;stroke-linejoin:miter;stroke-miterlimit:4;stroke-dasharray:none;stroke-dashoffset:0;stroke-opacity:1;color-rendering:auto;image-rendering:auto;shape-rendering:auto;text-rendering:auto;enable-background:accumulate"
         d="m 437.19305,140.94459 v 0.357 h 32.19212 v -0.357 z"
         id="path5785"
         inkscape:connector-curvature="0" />
    </g>
  </g>
</svg>
