<?xml version="1.0" encoding="UTF-8" standalone="no"?>
<!-- Created with Inkscape (http://www.inkscape.org/) -->

<svg
   xmlns:dc="http://purl.org/dc/elements/1.1/"
   xmlns:cc="http://creativecommons.org/ns#"
   xmlns:rdf="http://www.w3.org/1999/02/22-rdf-syntax-ns#"
   xmlns:svg="http://www.w3.org/2000/svg"
   xmlns="http://www.w3.org/2000/svg"
   xmlns:sodipodi="http://sodipodi.sourceforge.net/DTD/sodipodi-0.dtd"
   xmlns:inkscape="http://www.inkscape.org/namespaces/inkscape"
   width="160"
   height="250"
   viewBox="0 0 42.333332 66.145835"
   version="1.1"
   id="svg6000"
   inkscape:version="0.92.1 r15371"
   sodipodi:docname="ARstudioV.svg">
  <defs
     id="defs5994" />
  <sodipodi:namedview
     id="base"
     pagecolor="#ffffff"
     bordercolor="#666666"
     borderopacity="1.0"
     inkscape:pageopacity="0.0"
     inkscape:pageshadow="2"
     inkscape:zoom="0.9899495"
     inkscape:cx="-48.608821"
     inkscape:cy="151.86185"
     inkscape:document-units="mm"
     inkscape:current-layer="layer1"
     showgrid="false"
     inkscape:window-width="1366"
     inkscape:window-height="674"
     inkscape:window-x="0"
     inkscape:window-y="0"
     inkscape:window-maximized="1"
     inkscape:snap-bbox="true"
     inkscape:bbox-paths="false"
     inkscape:bbox-nodes="false"
     units="px"
     inkscape:snap-grids="false"
     inkscape:object-paths="true"
     inkscape:snap-intersection-paths="true"
     inkscape:snap-smooth-nodes="true"
     inkscape:snap-global="true"
     inkscape:snap-midpoints="false"
     inkscape:object-nodes="true"
     showguides="false">
    <inkscape:grid
       type="xygrid"
       id="grid6903" />
  </sodipodi:namedview>
  <metadata
     id="metadata5997">
    <rdf:RDF>
      <cc:Work
         rdf:about="">
        <dc:format>image/svg+xml</dc:format>
        <dc:type
           rdf:resource="http://purl.org/dc/dcmitype/StillImage" />
        <dc:title />
      </cc:Work>
    </rdf:RDF>
  </metadata>
  <g
     inkscape:label="Layer 1"
     inkscape:groupmode="layer"
     id="layer1"
     transform="translate(0,-230.85415)">
    <g
       id="g5394"
       transform="matrix(1.5170649,0,0,1.5170649,-654.33839,77.884296)"
       style="stroke-width:0.65916759">
      <path
         inkscape:connector-curvature="0"
         id="path4632-8-2"
         d="m 433.73964,101.23919 7e-4,6.7e-4 7.13872,13.04427 h 3.02373 l -5.68684,-10.39141 h 8.08606 1.32643 c 3.61769,0 6.52178,2.90466 6.52178,6.52249 0,3.6178 -2.90394,6.52177 -6.52178,6.52177 h -2.27377 -3.02371 -5.93912 -1.32644 -1.32642 v 2.65287 7.89346 h 2.65286 v -7.89346 h 7.39098 l 9.9959,18.26636 h 3.02437 l -9.99656,-18.26636 h 0.82191 c 5.05148,0 9.17454,-4.12317 9.17465,-9.17464 0,-5.05148 -4.12303,-9.17535 -9.17465,-9.17535 h -1.32643 v -6.7e-4 z"
         style="color:#000000;font-style:normal;font-variant:normal;font-weight:normal;font-stretch:normal;font-size:medium;line-height:normal;font-family:sans-serif;font-variant-ligatures:normal;font-variant-position:normal;font-variant-caps:normal;font-variant-numeric:normal;font-variant-alternates:normal;font-feature-settings:normal;text-indent:0;text-align:start;text-decoration:none;text-decoration-line:none;text-decoration-style:solid;text-decoration-color:#000000;letter-spacing:normal;word-spacing:normal;text-transform:none;writing-mode:lr-tb;direction:ltr;text-orientation:mixed;dominant-baseline:auto;baseline-shift:baseline;text-anchor:start;white-space:normal;shape-padding:0;clip-rule:nonzero;display:inline;overflow:visible;visibility:visible;opacity:1;isolation:auto;mix-blend-mode:normal;color-interpolation:sRGB;color-interpolation-filters:linearRGB;solid-color:#000000;solid-opacity:1;vector-effect:none;fill:#000000;fill-opacity:1;fill-rule:nonzero;stroke:none;stroke-width:1.31833518;stroke-linecap:square;stroke-linejoin:miter;stroke-miterlimit:4;stroke-dasharray:none;stroke-dashoffset:0;stroke-opacity:1;paint-order:normal;color-rendering:auto;image-rendering:auto;shape-rendering:auto;text-rendering:auto;enable-background:accumulate" />
      <g
         transform="matrix(0.86649129,0,0,0.86649129,426.87527,-109.07029)"
         id="text5235-6"
         style="font-style:normal;font-weight:normal;font-size:10.58333302px;line-height:1.25;font-family:sans-serif;letter-spacing:0px;word-spacing:0px;fill:#000000;fill-opacity:1;stroke:none;stroke-width:0.20127699"
         aria-label="19">
        <path
           inkscape:connector-curvature="0"
           id="path5237-4"
           style="font-style:normal;font-variant:normal;font-weight:normal;font-stretch:normal;font-family:'URW Gothic L';-inkscape-font-specification:'URW Gothic L';stroke-width:0.20127699"
           d="m 9.2547498,284.97284 h 0.7725832 v -7.82108 H 7.9212499 v 0.70908 h 1.3334999 z" />
        <path
           inkscape:connector-curvature="0"
           id="path5239-5"
           style="font-style:normal;font-variant:normal;font-weight:normal;font-stretch:normal;font-family:'URW Gothic L';-inkscape-font-specification:'URW Gothic L';stroke-width:0.20127699"
           d="m 14.881776,284.97284 1.936749,-2.87867 c 0.740834,-1.11125 0.931334,-1.5875 0.931334,-2.36008 0,-1.55575 -1.153583,-2.71992 -2.69875,-2.71992 -1.524,0 -2.63525,1.17475 -2.63525,2.77284 0,1.50283 1.100667,2.68816 2.487083,2.68816 0.328084,0 0.5715,-0.0635 0.92075,-0.22225 l -1.8415,2.71992 z m 0.169333,-7.24958 c 1.100667,0 1.915583,0.86783 1.915583,2.05316 0,1.12184 -0.8255,1.98967 -1.894416,1.98967 -1.090084,0 -1.87325,-0.84667 -1.87325,-2.01083 0,-1.18534 0.783166,-2.032 1.852083,-2.032 z" />
      </g>
      <g
         transform="matrix(1.0072566,0,0,1.0072566,-235.61525,-26.374555)"
         id="text5293-1-2"
         style="font-style:normal;font-weight:normal;font-size:3.43383813px;line-height:1.25;font-family:sans-serif;letter-spacing:0px;word-spacing:0px;fill:#000000;fill-opacity:1;stroke:none;stroke-width:0.17314827"
         aria-label="studio">
        <path
           inkscape:connector-curvature="0"
           id="path5313-0"
           style="font-style:normal;font-variant:normal;font-weight:normal;font-stretch:normal;font-family:'URW Gothic L';-inkscape-font-specification:'URW Gothic L';letter-spacing:2.64583325px;stroke-width:0.17314827"
           d="m 664.53202,168.57697 c 0.003,0.36399 0.24381,0.59749 0.60436,0.59749 0.33652,0 0.57345,-0.24037 0.57345,-0.58375 0,-0.23007 -0.10645,-0.38802 -0.32621,-0.48074 -0.28501,-0.11675 -0.29875,-0.12362 -0.35369,-0.15109 -0.11675,-0.0584 -0.17169,-0.13735 -0.17169,-0.24723 0,-0.15109 0.12018,-0.27128 0.27127,-0.27128 0.16483,0 0.26097,0.0961 0.27471,0.27471 h 0.25754 c -0.0103,-0.30218 -0.22664,-0.50821 -0.52881,-0.50821 -0.30562,0 -0.53225,0.2232 -0.53225,0.52881 0,0.13392 0.0481,0.25067 0.14079,0.33652 0.079,0.0721 0.0824,0.0721 0.34682,0.18199 0.11331,0.0446 0.19572,0.0858 0.2438,0.11675 0.0755,0.0515 0.12018,0.14079 0.12018,0.24381 0,0.18886 -0.13392,0.32621 -0.31591,0.32621 -0.20946,0 -0.33995,-0.13392 -0.35369,-0.36399 z" />
        <path
           inkscape:connector-curvature="0"
           id="path5315-2"
           style="font-style:normal;font-variant:normal;font-weight:normal;font-stretch:normal;font-family:'URW Gothic L';-inkscape-font-specification:'URW Gothic L';letter-spacing:2.64583325px;stroke-width:0.17314827"
           d="m 668.89708,169.12982 h 0.25411 v -1.64824 h 0.42236 v -0.23007 h -0.42236 v -0.65929 h -0.25411 v 0.65929 h -0.40519 v 0.23007 h 0.40519 z" />
        <path
           inkscape:connector-curvature="0"
           id="path5317-9"
           style="font-style:normal;font-variant:normal;font-weight:normal;font-stretch:normal;font-family:'URW Gothic L';-inkscape-font-specification:'URW Gothic L';letter-spacing:2.64583325px;stroke-width:0.17314827"
           d="m 674.13493,167.25151 h -0.25411 v 0.96491 c 0,0.23007 -0.0343,0.37429 -0.11331,0.49104 -0.10645,0.14765 -0.27471,0.2335 -0.47044,0.2335 -0.20946,0 -0.38802,-0.0858 -0.47387,-0.23693 -0.0584,-0.0961 -0.0893,-0.24724 -0.0893,-0.43954 v -1.01298 h -0.2541 v 1.01298 c 0,0.27815 0.0481,0.47387 0.14765,0.61123 0.14079,0.19573 0.36742,0.29874 0.649,0.29874 0.29187,0 0.4773,-0.10301 0.60435,-0.33651 v 0.29187 h 0.25411 z" />
        <path
           inkscape:connector-curvature="0"
           id="path5319-0"
           style="font-style:normal;font-variant:normal;font-weight:normal;font-stretch:normal;font-family:'URW Gothic L';-inkscape-font-specification:'URW Gothic L';letter-spacing:2.64583325px;stroke-width:0.17314827"
           d="m 679.13095,166.59222 h -0.2541 v 0.95804 c -0.18543,-0.2232 -0.44296,-0.34339 -0.73827,-0.34339 -0.56659,0 -0.99925,0.4258 -0.99925,0.98551 0,0.55629 0.44296,0.98208 1.02328,0.98208 0.31248,0 0.52538,-0.11331 0.71424,-0.38459 v 0.33995 h 0.2541 z m -0.99924,0.84815 c 0.41549,0 0.75544,0.33309 0.75544,0.74515 0,0.41206 -0.32965,0.75544 -0.73141,0.75544 -0.42922,0 -0.75887,-0.32965 -0.75887,-0.75888 0,-0.41206 0.32621,-0.74171 0.73484,-0.74171 z" />
        <path
           inkscape:connector-curvature="0"
           id="path5321-9"
           style="font-style:normal;font-variant:normal;font-weight:normal;font-stretch:normal;font-family:'URW Gothic L';-inkscape-font-specification:'URW Gothic L';letter-spacing:2.64583325px;stroke-width:0.17314827"
           d="m 682.21133,169.12982 h 0.2541 v -1.87831 h -0.2541 z m 0,-2.10494 h 0.2541 v -0.43266 h -0.2541 z" />
        <path
           inkscape:connector-curvature="0"
           id="path5323-9"
           style="font-style:normal;font-variant:normal;font-weight:normal;font-stretch:normal;font-family:'URW Gothic L';-inkscape-font-specification:'URW Gothic L';letter-spacing:2.64583325px;stroke-width:0.17314827"
           d="m 686.45465,167.20687 c -0.55628,0 -0.98551,0.42236 -0.98551,0.97178 0,0.57688 0.42236,0.99581 1.00611,0.99581 0.54942,0 0.95461,-0.41549 0.95461,-0.97864 0,-0.57345 -0.41206,-0.98895 -0.97521,-0.98895 z m 0,0.2335 c 0.41206,0 0.71767,0.32278 0.71767,0.75888 0,0.42923 -0.29531,0.74171 -0.70394,0.74171 -0.43266,0 -0.7417,-0.31591 -0.7417,-0.75544 0,-0.4258 0.31248,-0.74515 0.72797,-0.74515 z" />
      </g>
      <path
         inkscape:connector-curvature="0"
         id="path5330-4"
         d="m 433.73881,139.88093 v 0.26368 h 23.06445 v -0.26368 z"
         style="color:#000000;font-style:normal;font-variant:normal;font-weight:normal;font-stretch:normal;font-size:medium;line-height:normal;font-family:sans-serif;font-variant-ligatures:normal;font-variant-position:normal;font-variant-caps:normal;font-variant-numeric:normal;font-variant-alternates:normal;font-feature-settings:normal;text-indent:0;text-align:start;text-decoration:none;text-decoration-line:none;text-decoration-style:solid;text-decoration-color:#000000;letter-spacing:normal;word-spacing:normal;text-transform:none;writing-mode:lr-tb;direction:ltr;text-orientation:mixed;dominant-baseline:auto;baseline-shift:baseline;text-anchor:start;white-space:normal;shape-padding:0;clip-rule:nonzero;display:inline;overflow:visible;visibility:visible;opacity:1;isolation:auto;mix-blend-mode:normal;color-interpolation:sRGB;color-interpolation-filters:linearRGB;solid-color:#000000;solid-opacity:1;vector-effect:none;fill:#000000;fill-opacity:1;fill-rule:nonzero;stroke:none;stroke-width:0.17440476px;stroke-linecap:butt;stroke-linejoin:miter;stroke-miterlimit:4;stroke-dasharray:none;stroke-dashoffset:0;stroke-opacity:1;color-rendering:auto;image-rendering:auto;shape-rendering:auto;text-rendering:auto;enable-background:accumulate" />
    </g>
  </g>
</svg>
