<?xml version="1.0" encoding="UTF-8" standalone="no"?>
<svg
   xmlns:dc="http://purl.org/dc/elements/1.1/"
   xmlns:cc="http://creativecommons.org/ns#"
   xmlns:rdf="http://www.w3.org/1999/02/22-rdf-syntax-ns#"
   xmlns:svg="http://www.w3.org/2000/svg"
   xmlns="http://www.w3.org/2000/svg"
   xmlns:sodipodi="http://sodipodi.sourceforge.net/DTD/sodipodi-0.dtd"
   xmlns:inkscape="http://www.inkscape.org/namespaces/inkscape"
   sodipodi:docname="logoPP.svg"
   inkscape:version="1.0beta1 (fe3e306, 2019-09-17)"
   id="svg4662"
   version="1.1"
   viewBox="0 0 79.374998 79.375002"
   height="300"
   width="300">
  <defs
     id="defs4656" />
  <sodipodi:namedview
     inkscape:window-maximized="1"
     inkscape:window-y="0"
     inkscape:window-x="0"
     inkscape:window-height="685"
     inkscape:window-width="1366"
     units="px"
     showgrid="false"
     inkscape:document-rotation="0"
     inkscape:current-layer="layer1"
     inkscape:document-units="mm"
     inkscape:cy="328.52216"
     inkscape:cx="245.56349"
     inkscape:zoom="0.7"
     inkscape:pageshadow="2"
     inkscape:pageopacity="0.0"
     borderopacity="1.0"
     bordercolor="#666666"
     pagecolor="#ffffff"
     id="base" />
  <metadata
     id="metadata4659">
    <rdf:RDF>
      <cc:Work
         rdf:about="">
        <dc:format>image/svg+xml</dc:format>
        <dc:type
           rdf:resource="http://purl.org/dc/dcmitype/StillImage" />
        <dc:title></dc:title>
      </cc:Work>
    </rdf:RDF>
  </metadata>
  <g
     id="layer1"
     inkscape:groupmode="layer"
     inkscape:label="Layer 1">
    <g
       id="g5282">
      <rect
         y="-0.0060191457"
         x="6.3720705e-08"
         height="79.387039"
         width="79.375"
         id="rect3031"
         style="display:inline;opacity:1;fill:#333333;fill-opacity:1;stroke:none;stroke-width:1.9;stroke-linecap:square;stroke-miterlimit:4;stroke-dasharray:none;stroke-opacity:1;stop-opacity:1" />
      <path
         id="path3020"
         d="m 31.855895,23.696036 h 8.081582 c 3.621652,0 6.586441,2.964773 6.586441,6.586477 0,2.779643 -1.747046,5.171435 -4.196546,6.134148 l 5.076161,8.791796 h -0.0087 l 1.832147,3.172862 h -2.060123 a 1.8480144,1.8480144 0 0 1 -1.600252,-0.924065 l -2.818779,-4.881626 h 0.0087 l -3.294141,-5.705313 h -4.898998 v 5.630554 h -0.859431 a 1.8480144,1.8480144 0 0 1 -1.848061,-1.848142 v -6.490271 h 8.081582 0.354403 v -0.01637 c 1.9892,-0.176587 3.524626,-1.82484 3.524626,-3.863642 0,-2.158442 -1.720587,-3.879011 -3.879029,-3.879011 h -3.390805 l 3.745208,6.48864 h -2.058462 a 1.8480144,1.8480144 0 0 1 -1.600167,-0.923807 z"
         style="opacity:1;fill:#ffffff;fill-opacity:1;stroke-width:10.2;stroke-linecap:square;stroke-opacity:0.142857;stop-opacity:1"
         inkscape:connector-curvature="0" />
      <g
         aria-label="AR studio"
         id="text3024"
         style="font-size:5.5895px;line-height:1.25;font-family:sans-serif;text-align:end;letter-spacing:0px;word-spacing:0px;text-anchor:end;opacity:1;fill:#ffffff;fill-opacity:1;stroke-width:0.264584;stop-opacity:1">
        <path
           d="m 27.257299,55.606308 h 0.435981 l 0.603666,-1.391786 h 1.922788 l 0.598076,1.391786 h 0.45275 l -1.777461,-4.13064 H 29.02917 Z m 1.196153,-1.766282 0.810477,-1.89484 0.793709,1.89484 z"
           style="font-style:normal;font-variant:normal;font-weight:normal;font-stretch:normal;font-family:'URW Gothic L';-inkscape-font-specification:'URW Gothic L';fill:#ffffff;fill-opacity:1;stroke-width:0.264584"
           id="path5254" />
        <path
           d="m 33.339985,54.063606 c 0.793709,-0.08384 1.218511,-0.525413 1.218511,-1.257637 0,-0.519824 -0.217991,-0.911089 -0.620435,-1.129079 -0.257117,-0.139738 -0.614845,-0.201222 -1.157026,-0.201222 h -1.022879 v 4.13064 h 0.413623 v -3.756144 h 0.581308 c 0.435981,0 0.726635,0.04472 0.950215,0.150917 0.279475,0.134148 0.435981,0.413623 0.435981,0.788119 0,0.469518 -0.212401,0.760172 -0.626024,0.871962 -0.195632,0.05031 -0.463928,0.07266 -0.922267,0.07266 l 1.391785,1.872482 h 0.514234 z"
           style="font-style:normal;font-variant:normal;font-weight:normal;font-stretch:normal;font-family:'URW Gothic L';-inkscape-font-specification:'URW Gothic L';fill:#ffffff;fill-opacity:1;stroke-width:0.264584"
           id="path5256" />
        <path
           d="m 36.379363,54.706398 c 0.0056,0.592487 0.396854,0.972573 0.983752,0.972573 0.547771,0 0.933446,-0.391265 0.933446,-0.950215 0,-0.374496 -0.173274,-0.631613 -0.531002,-0.78253 -0.463929,-0.190043 -0.486287,-0.201222 -0.575719,-0.245937 -0.190043,-0.09502 -0.279475,-0.22358 -0.279475,-0.402444 0,-0.245938 0.195633,-0.441571 0.441571,-0.441571 0.268296,0 0.424802,0.156506 0.44716,0.44716 h 0.419212 c -0.01677,-0.491876 -0.368907,-0.827246 -0.860783,-0.827246 -0.497465,0 -0.866372,0.363318 -0.866372,0.860783 0,0.217991 0.07825,0.408033 0.229169,0.547771 0.128559,0.117379 0.134148,0.117379 0.56454,0.296243 0.184453,0.07266 0.318601,0.139738 0.396854,0.190043 0.122969,0.08384 0.195633,0.22917 0.195633,0.396855 0,0.307422 -0.217991,0.531002 -0.514234,0.531002 -0.34096,0 -0.553361,-0.21799 -0.575719,-0.592487 z"
           style="font-style:normal;font-variant:normal;font-weight:normal;font-stretch:normal;font-family:'URW Gothic L';-inkscape-font-specification:'URW Gothic L';fill:#ffffff;fill-opacity:1;stroke-width:0.264584"
           id="path5258" />
        <path
           d="m 39.177868,55.606308 h 0.413623 v -2.68296 H 40.279 v -0.374496 h -0.687509 v -1.073184 h -0.413623 v 1.073184 h -0.659561 v 0.374496 h 0.659561 z"
           style="font-style:normal;font-variant:normal;font-weight:normal;font-stretch:normal;font-family:'URW Gothic L';-inkscape-font-specification:'URW Gothic L';fill:#ffffff;fill-opacity:1;stroke-width:0.264584"
           id="path5260" />
        <path
           d="m 43.397068,52.548852 h -0.413623 v 1.570649 c 0,0.374496 -0.0559,0.609255 -0.184454,0.799298 -0.173274,0.240349 -0.44716,0.380086 -0.765761,0.380086 -0.34096,0 -0.631614,-0.139737 -0.771351,-0.385675 -0.09502,-0.156506 -0.145327,-0.402444 -0.145327,-0.715456 v -1.648902 h -0.413623 v 1.648902 c 0,0.452749 0.07825,0.771351 0.240348,0.994931 0.22917,0.318601 0.598077,0.486286 1.056416,0.486286 0.475107,0 0.77694,-0.167685 0.983752,-0.547771 v 0.475108 h 0.413623 z"
           style="font-style:normal;font-variant:normal;font-weight:normal;font-stretch:normal;font-family:'URW Gothic L';-inkscape-font-specification:'URW Gothic L';fill:#ffffff;fill-opacity:1;stroke-width:0.264584"
           id="path5262" />
        <path
           d="M 47.222643,51.475668 H 46.80902 v 1.55947 c -0.301833,-0.363317 -0.721046,-0.55895 -1.201743,-0.55895 -0.922267,0 -1.626544,0.693098 -1.626544,1.604186 0,0.905499 0.721045,1.598597 1.665671,1.598597 0.508644,0 0.855193,-0.184453 1.162616,-0.626024 v 0.553361 h 0.413623 z m -1.626545,1.380606 c 0.67633,0 1.22969,0.542182 1.22969,1.212921 0,0.67074 -0.536592,1.22969 -1.190563,1.22969 -0.698688,0 -1.23528,-0.536592 -1.23528,-1.235279 0,-0.67074 0.531003,-1.207332 1.196153,-1.207332 z"
           style="font-style:normal;font-variant:normal;font-weight:normal;font-stretch:normal;font-family:'URW Gothic L';-inkscape-font-specification:'URW Gothic L';fill:#ffffff;fill-opacity:1;stroke-width:0.264584"
           id="path5264" />
        <path
           d="m 47.929978,55.606308 h 0.413623 v -3.057456 h -0.413623 z m 0,-3.426363 h 0.413623 v -0.704277 h -0.413623 z"
           style="font-style:normal;font-variant:normal;font-weight:normal;font-stretch:normal;font-family:'URW Gothic L';-inkscape-font-specification:'URW Gothic L';fill:#ffffff;fill-opacity:1;stroke-width:0.264584"
           id="path5266" />
        <path
           d="m 50.530318,52.476188 c -0.905499,0 -1.604187,0.687509 -1.604187,1.581828 0,0.939036 0.687509,1.620955 1.637724,1.620955 0.89432,0 1.553881,-0.676329 1.553881,-1.593007 0,-0.933446 -0.67074,-1.609776 -1.587418,-1.609776 z m 0,0.380086 c 0.67074,0 1.168205,0.525413 1.168205,1.235279 0,0.698688 -0.480697,1.207332 -1.145847,1.207332 -0.704277,0 -1.207332,-0.514234 -1.207332,-1.22969 0,-0.693097 0.508644,-1.212921 1.184974,-1.212921 z"
           style="font-style:normal;font-variant:normal;font-weight:normal;font-stretch:normal;font-family:'URW Gothic L';-inkscape-font-specification:'URW Gothic L';fill:#ffffff;fill-opacity:1;stroke-width:0.264584"
           id="path5268" />
      </g>
    </g>
  </g>
</svg>
