<?xml version="1.0" encoding="UTF-8" standalone="no"?>
<svg
   xmlns:dc="http://purl.org/dc/elements/1.1/"
   xmlns:cc="http://creativecommons.org/ns#"
   xmlns:rdf="http://www.w3.org/1999/02/22-rdf-syntax-ns#"
   xmlns:svg="http://www.w3.org/2000/svg"
   xmlns="http://www.w3.org/2000/svg"
   xmlns:sodipodi="http://sodipodi.sourceforge.net/DTD/sodipodi-0.dtd"
   xmlns:inkscape="http://www.inkscape.org/namespaces/inkscape"
   inkscape:version="1.0beta1 (fe3e306, 2019-09-17)"
   sodipodi:docname="logo3.svg"
   id="svg3161"
   version="1.1"
   viewBox="0 0 210 297"
   height="297mm"
   width="210mm">
  <defs
     id="defs3155" />
  <sodipodi:namedview
     inkscape:window-maximized="1"
     inkscape:window-y="0"
     inkscape:window-x="0"
     inkscape:window-height="685"
     inkscape:window-width="1366"
     showgrid="false"
     inkscape:document-rotation="0"
     inkscape:current-layer="layer1"
     inkscape:document-units="mm"
     inkscape:cy="791.30395"
     inkscape:cx="301.70954"
     inkscape:zoom="0.35"
     inkscape:pageshadow="2"
     inkscape:pageopacity="0.0"
     borderopacity="1.0"
     bordercolor="#666666"
     pagecolor="#ffffff"
     id="base" />
  <metadata
     id="metadata3158">
    <rdf:RDF>
      <cc:Work
         rdf:about="">
        <dc:format>image/svg+xml</dc:format>
        <dc:type
           rdf:resource="http://purl.org/dc/dcmitype/StillImage" />
      </cc:Work>
    </rdf:RDF>
  </metadata>
  <g
     id="layer1"
     inkscape:groupmode="layer"
     inkscape:label="Layer 1">
    <path
       inkscape:connector-curvature="0"
       style="opacity:1;fill:#ffffff;fill-opacity:1;stroke-width:10.2;stroke-linecap:square;stroke-opacity:0.142857;stop-opacity:1"
       d="m 74.90618,87.05118 h 31.05429 c 13.91656,0 25.30906,11.39244 25.30906,25.3092 0,10.68106 -6.7132,19.87176 -16.12565,23.57108 l 19.50566,33.78336 h -0.0335 l 7.04021,12.19204 h -7.91623 a 7.101181,7.101181 0 0 1 -6.14913,-3.55081 l -10.83144,-18.75814 h 0.0335 L 104.13488,137.67467 H 85.30999 v 21.63597 h -3.30245 a 7.101181,7.101181 0 0 1 -7.10136,-7.10167 v -24.93952 h 31.05429 1.36183 v -0.0629 c 7.6437,-0.67855 13.54373,-7.01213 13.54373,-14.84643 0,-8.29403 -6.61153,-14.90549 -14.90556,-14.90549 H 92.93096 l 14.39134,24.93325 h -7.90985 a 7.101181,7.101181 0 0 1 -6.1488,-3.54982 z"
       id="path3020" />
    <g
       style="font-size:21.4782px;line-height:1.25;font-family:sans-serif;text-align:end;letter-spacing:0px;word-spacing:0px;text-anchor:end;opacity:1;fill:#ffffff;fill-opacity:1;stroke-width:0.264583;stop-opacity:1"
       id="text3024"
       aria-label="AR studio">
      <g
         style="opacity:1;fill:#ffffff"
         id="g3780">
        <path
           id="path3782"
           d="m 57.235678,209.6696 h 1.675299 l 2.319646,-5.34807 h 7.388501 l 2.298167,5.34807 h 1.739735 l -6.830068,-15.87239 h -1.782691 z m 4.596335,-6.78711 3.114339,-7.28111 3.049904,7.28111 z"
           style="color:#000000;font-style:normal;font-variant:normal;font-weight:normal;font-stretch:normal;font-size:medium;line-height:1.25;font-family:'URW Gothic L';-inkscape-font-specification:'URW Gothic L';font-variant-ligatures:normal;font-variant-position:normal;font-variant-caps:normal;font-variant-numeric:normal;font-variant-alternates:normal;font-variant-east-asian:normal;font-feature-settings:normal;font-variation-settings:normal;text-indent:0;text-align:start;text-decoration:none;text-decoration-line:none;text-decoration-style:solid;text-decoration-color:#000000;letter-spacing:0px;word-spacing:0px;text-transform:none;writing-mode:lr-tb;direction:ltr;text-orientation:mixed;dominant-baseline:auto;baseline-shift:baseline;text-anchor:start;white-space:normal;shape-padding:0;shape-margin:0;inline-size:0;clip-rule:nonzero;display:inline;overflow:visible;visibility:visible;isolation:auto;mix-blend-mode:normal;color-interpolation:sRGB;color-interpolation-filters:linearRGB;solid-color:#000000;solid-opacity:1;vector-effect:none;fill:#ffffff;fill-opacity:1;fill-rule:nonzero;stroke-width:0.264583;stroke-linecap:butt;stroke-linejoin:miter;stroke-miterlimit:4;stroke-dasharray:none;stroke-dashoffset:0;stroke-opacity:1;filter-blend-mode:normal;filter-gaussianBlur-deviation:0;color-rendering:auto;image-rendering:auto;shape-rendering:auto;text-rendering:auto;enable-background:accumulate;stop-color:#000000;stop-opacity:1;stroke:none" />
        <path
           id="path3784"
           d="M 63.957031 193.66406 L 57.035156 209.80273 L 57.236328 209.80273 L 58.998047 209.80273 L 61.318359 204.45312 L 68.53125 204.45312 L 70.830078 209.80273 L 72.857422 209.80273 L 65.914062 193.66406 L 63.957031 193.66406 z M 64.130859 193.92969 L 65.740234 193.92969 L 72.455078 209.53711 L 71.003906 209.53711 L 68.707031 204.18945 L 61.144531 204.18945 L 58.824219 209.53711 L 57.4375 209.53711 L 64.130859 193.92969 z M 64.947266 195.26172 L 61.630859 203.01562 L 61.832031 203.01562 L 68.195312 203.01562 L 64.947266 195.26172 z M 64.945312 195.94141 L 67.798828 202.75 L 62.03125 202.75 L 64.945312 195.94141 z "
           style="color:#000000;font-style:normal;font-variant:normal;font-weight:normal;font-stretch:normal;font-size:medium;line-height:1.25;font-family:'URW Gothic L';-inkscape-font-specification:'URW Gothic L';font-variant-ligatures:normal;font-variant-position:normal;font-variant-caps:normal;font-variant-numeric:normal;font-variant-alternates:normal;font-variant-east-asian:normal;font-feature-settings:normal;font-variation-settings:normal;text-indent:0;text-align:start;text-decoration:none;text-decoration-line:none;text-decoration-style:solid;text-decoration-color:#000000;letter-spacing:0px;word-spacing:0px;text-transform:none;writing-mode:lr-tb;direction:ltr;text-orientation:mixed;dominant-baseline:auto;baseline-shift:baseline;text-anchor:start;white-space:normal;shape-padding:0;shape-margin:0;inline-size:0;clip-rule:nonzero;display:inline;overflow:visible;visibility:visible;isolation:auto;mix-blend-mode:normal;color-interpolation:sRGB;color-interpolation-filters:linearRGB;solid-color:#000000;solid-opacity:1;vector-effect:none;fill-opacity:1;fill-rule:nonzero;stroke-width:0.264583;stroke-linecap:butt;stroke-linejoin:miter;stroke-miterlimit:4;stroke-dasharray:none;stroke-dashoffset:0;stroke-opacity:1;filter-blend-mode:normal;filter-gaussianBlur-deviation:0;color-rendering:auto;image-rendering:auto;shape-rendering:auto;text-rendering:auto;enable-background:accumulate;stop-color:#000000;stop-opacity:1;stroke:none;fill:#ffffff" />
      </g>
      <g
         style="opacity:1;fill:#ffffff"
         id="g3786">
        <path
           id="path3788"
           d="m 80.608994,203.74162 c 3.049905,-0.32218 4.682248,-2.01895 4.682248,-4.8326 0,-1.99747 -0.83765,-3.50094 -2.38408,-4.33859 -0.987997,-0.53696 -2.362602,-0.77322 -4.445988,-0.77322 h -3.930511 v 15.87239 h 1.589387 v -14.43335 h 2.233733 c 1.6753,0 2.792166,0.17183 3.651294,0.57991 1.07391,0.51548 1.6753,1.58939 1.6753,3.02843 0,1.80417 -0.816172,2.92103 -2.405558,3.3506 -0.751737,0.1933 -1.782691,0.27921 -3.543904,0.27921 l 5.348072,7.1952 h 1.975995 z"
           style="color:#000000;font-style:normal;font-variant:normal;font-weight:normal;font-stretch:normal;font-size:medium;line-height:1.25;font-family:'URW Gothic L';-inkscape-font-specification:'URW Gothic L';font-variant-ligatures:normal;font-variant-position:normal;font-variant-caps:normal;font-variant-numeric:normal;font-variant-alternates:normal;font-variant-east-asian:normal;font-feature-settings:normal;font-variation-settings:normal;text-indent:0;text-align:start;text-decoration:none;text-decoration-line:none;text-decoration-style:solid;text-decoration-color:#000000;letter-spacing:0px;word-spacing:0px;text-transform:none;writing-mode:lr-tb;direction:ltr;text-orientation:mixed;dominant-baseline:auto;baseline-shift:baseline;text-anchor:start;white-space:normal;shape-padding:0;shape-margin:0;inline-size:0;clip-rule:nonzero;display:inline;overflow:visible;visibility:visible;isolation:auto;mix-blend-mode:normal;color-interpolation:sRGB;color-interpolation-filters:linearRGB;solid-color:#000000;solid-opacity:1;vector-effect:none;fill:#ffffff;fill-opacity:1;fill-rule:nonzero;stroke-width:0.264583;stroke-linecap:butt;stroke-linejoin:miter;stroke-miterlimit:4;stroke-dasharray:none;stroke-dashoffset:0;stroke-opacity:1;filter-blend-mode:normal;filter-gaussianBlur-deviation:0;color-rendering:auto;image-rendering:auto;shape-rendering:auto;text-rendering:auto;enable-background:accumulate;stop-color:#000000;stop-opacity:1;stroke:none" />
        <path
           id="path3790"
           d="M 74.398438 193.66406 L 74.398438 209.80273 L 76.251953 209.80273 L 76.251953 195.36914 L 78.353516 195.36914 C 80.018887 195.36914 81.115435 195.5408 81.947266 195.93555 C 82.973925 196.42835 83.548828 197.44157 83.548828 198.84375 C 83.548828 199.72589 83.349909 200.42578 82.966797 200.95703 C 82.584189 201.48758 82.012964 201.85752 81.242188 202.06641 C 80.509548 202.2548 79.48738 202.3418 77.730469 202.3418 L 77.466797 202.3418 L 83.011719 209.80273 L 85.320312 209.80273 L 80.833984 203.82031 C 82.267704 203.63116 83.415516 203.15182 84.189453 202.35156 C 85.005266 201.508 85.423828 200.34061 85.423828 198.9082 C 85.423828 196.87375 84.557833 195.31477 82.970703 194.45508 C 81.951778 193.90131 80.554325 193.66406 78.460938 193.66406 L 74.398438 193.66406 z M 74.662109 193.92969 L 78.460938 193.92969 C 80.534322 193.92969 81.886681 194.16735 82.84375 194.6875 C 84.34948 195.5031 85.158203 196.94772 85.158203 198.9082 C 85.158203 200.28945 84.760882 201.37919 83.998047 202.16797 C 83.235212 202.95675 82.09898 203.45057 80.595703 203.60938 L 80.363281 203.63477 L 80.503906 203.82031 L 84.791016 209.53711 L 83.144531 209.53711 L 77.980469 202.58789 C 79.53048 202.5767 80.591612 202.50858 81.308594 202.32422 L 81.308594 202.32227 C 82.125658 202.10143 82.75932 201.6989 83.181641 201.11328 C 83.603961 200.52766 83.8125 199.76578 83.8125 198.84375 C 83.8125 197.36785 83.18366 196.23543 82.0625 195.69727 C 81.176236 195.2763 80.037861 195.10352 78.353516 195.10352 L 75.988281 195.10352 L 75.988281 209.53711 L 74.662109 209.53711 L 74.662109 193.92969 z "
           style="color:#000000;font-style:normal;font-variant:normal;font-weight:normal;font-stretch:normal;font-size:medium;line-height:1.25;font-family:'URW Gothic L';-inkscape-font-specification:'URW Gothic L';font-variant-ligatures:normal;font-variant-position:normal;font-variant-caps:normal;font-variant-numeric:normal;font-variant-alternates:normal;font-variant-east-asian:normal;font-feature-settings:normal;font-variation-settings:normal;text-indent:0;text-align:start;text-decoration:none;text-decoration-line:none;text-decoration-style:solid;text-decoration-color:#000000;letter-spacing:0px;word-spacing:0px;text-transform:none;writing-mode:lr-tb;direction:ltr;text-orientation:mixed;dominant-baseline:auto;baseline-shift:baseline;text-anchor:start;white-space:normal;shape-padding:0;shape-margin:0;inline-size:0;clip-rule:nonzero;display:inline;overflow:visible;visibility:visible;isolation:auto;mix-blend-mode:normal;color-interpolation:sRGB;color-interpolation-filters:linearRGB;solid-color:#000000;solid-opacity:1;vector-effect:none;fill-opacity:1;fill-rule:nonzero;stroke-width:0.264583;stroke-linecap:butt;stroke-linejoin:miter;stroke-miterlimit:4;stroke-dasharray:none;stroke-dashoffset:0;stroke-opacity:1;filter-blend-mode:normal;filter-gaussianBlur-deviation:0;color-rendering:auto;image-rendering:auto;shape-rendering:auto;text-rendering:auto;enable-background:accumulate;stop-color:#000000;stop-opacity:1;stroke:none;fill:#ffffff" />
      </g>
      <g
         style="opacity:1;fill:#ffffff"
         id="g3792">
        <path
           id="path3794"
           d="m 92.288102,206.21161 c 0.02148,2.27669 1.524952,3.73721 3.780163,3.73721 2.104864,0 3.58686,-1.50348 3.58686,-3.6513 0,-1.43904 -0.665825,-2.42703 -2.04043,-3.00694 -1.78269,-0.73026 -1.868603,-0.77322 -2.212254,-0.94505 -0.730259,-0.36512 -1.07391,-0.85912 -1.07391,-1.54643 0,-0.94504 0.751737,-1.69677 1.696778,-1.69677 1.030953,0 1.632343,0.60139 1.718256,1.71825 h 1.610865 c -0.06443,-1.89008 -1.417562,-3.17877 -3.307643,-3.17877 -1.91156,0 -3.329121,1.39608 -3.329121,3.30764 0,0.83765 0.300694,1.56791 0.880606,2.10487 0.493999,0.45104 0.515477,0.45104 2.169298,1.13834 0.708781,0.27922 1.224258,0.53696 1.524952,0.73026 0.472521,0.32217 0.751737,0.88061 0.751737,1.52495 0,1.1813 -0.837649,2.04043 -1.975994,2.04043 -1.31017,0 -2.126342,-0.83765 -2.212255,-2.27669 z"
           style="color:#000000;font-style:normal;font-variant:normal;font-weight:normal;font-stretch:normal;font-size:medium;line-height:1.25;font-family:'URW Gothic L';-inkscape-font-specification:'URW Gothic L';font-variant-ligatures:normal;font-variant-position:normal;font-variant-caps:normal;font-variant-numeric:normal;font-variant-alternates:normal;font-variant-east-asian:normal;font-feature-settings:normal;font-variation-settings:normal;text-indent:0;text-align:start;text-decoration:none;text-decoration-line:none;text-decoration-style:solid;text-decoration-color:#000000;letter-spacing:0px;word-spacing:0px;text-transform:none;writing-mode:lr-tb;direction:ltr;text-orientation:mixed;dominant-baseline:auto;baseline-shift:baseline;text-anchor:start;white-space:normal;shape-padding:0;shape-margin:0;inline-size:0;clip-rule:nonzero;display:inline;overflow:visible;visibility:visible;isolation:auto;mix-blend-mode:normal;color-interpolation:sRGB;color-interpolation-filters:linearRGB;solid-color:#000000;solid-opacity:1;vector-effect:none;fill:#ffffff;fill-opacity:1;fill-rule:nonzero;stroke-width:0.264583;stroke-linecap:butt;stroke-linejoin:miter;stroke-miterlimit:4;stroke-dasharray:none;stroke-dashoffset:0;stroke-opacity:1;filter-blend-mode:normal;filter-gaussianBlur-deviation:0;color-rendering:auto;image-rendering:auto;shape-rendering:auto;text-rendering:auto;enable-background:accumulate;stop-color:#000000;stop-opacity:1;stroke:none" />
        <path
           id="path3796"
           d="M 96.046875 197.50977 C 94.070904 197.50977 92.585938 198.97226 92.585938 200.94922 C 92.585938 201.81853 92.900754 202.59025 93.507812 203.15234 L 93.509766 203.15234 C 93.75747 203.37851 93.903347 203.5047 94.1875 203.65234 C 94.471653 203.79999 94.890074 203.97088 95.716797 204.31445 L 95.71875 204.31445 L 95.71875 204.31641 C 96.422052 204.59347 96.932864 204.85012 97.220703 205.03516 C 97.652315 205.33129 97.912109 205.84282 97.912109 206.44727 C 97.912109 207.56603 97.140142 208.35547 96.068359 208.35547 C 95.441468 208.35547 94.949587 208.15879 94.597656 207.79688 C 94.245725 207.43496 94.029844 206.89929 93.988281 206.20312 L 93.980469 206.08008 L 92.154297 206.08008 L 92.15625 206.21289 C 92.167262 207.38009 92.560537 208.35101 93.248047 209.02734 C 93.935557 209.70368 94.912196 210.08203 96.068359 210.08203 C 98.23622 210.08203 99.787109 208.50555 99.787109 206.29688 C 99.787109 204.81703 99.076105 203.76285 97.666016 203.16797 L 97.664062 203.16797 C 95.881677 202.43783 95.804589 202.39839 95.460938 202.22656 C 94.758521 201.87536 94.460938 201.44204 94.460938 200.79883 C 94.460938 199.92394 95.150504 199.23437 96.025391 199.23438 C 96.515144 199.23438 96.882292 199.37448 97.144531 199.63672 C 97.40677 199.89896 97.570043 200.29337 97.611328 200.83008 L 97.621094 200.95312 L 99.492188 200.95312 L 99.486328 200.81641 C 99.419819 198.86534 97.997088 197.50977 96.046875 197.50977 z M 96.046875 197.77344 C 97.820333 197.77344 99.033168 198.95177 99.166016 200.6875 L 97.826172 200.6875 C 97.763193 200.17913 97.62101 199.7382 97.332031 199.44922 C 97.014359 199.13155 96.566591 198.9707 96.025391 198.9707 C 95.010196 198.9707 94.195313 199.78363 94.195312 200.79883 C 94.195312 201.53023 94.585649 202.08385 95.34375 202.46289 C 95.687145 202.63459 95.78334 202.68328 97.5625 203.41211 C 98.901621 203.97705 99.523438 204.89864 99.523438 206.29688 C 99.523438 208.38384 98.110227 209.81641 96.068359 209.81641 C 94.969312 209.81641 94.066992 209.46294 93.433594 208.83984 C 92.828278 208.24437 92.483574 207.38591 92.443359 206.34375 L 93.773438 206.34375 C 93.839644 207.01524 94.031773 207.59531 94.408203 207.98242 C 94.813379 208.39909 95.385081 208.62109 96.068359 208.62109 C 97.273266 208.62109 98.175781 207.6911 98.175781 206.44727 C 98.175781 205.76471 97.878457 205.16304 97.367188 204.81445 L 97.365234 204.8125 L 97.363281 204.8125 C 97.050055 204.61114 96.531488 204.35136 95.818359 204.07031 L 95.816406 204.07031 C 94.991099 203.72733 94.571848 203.55476 94.308594 203.41797 C 94.045053 203.28103 93.933794 203.18191 93.6875 202.95703 C 93.134735 202.44521 92.849609 201.75521 92.849609 200.94922 C 92.849609 199.10306 94.199726 197.77344 96.046875 197.77344 z "
           style="color:#000000;font-style:normal;font-variant:normal;font-weight:normal;font-stretch:normal;font-size:medium;line-height:1.25;font-family:'URW Gothic L';-inkscape-font-specification:'URW Gothic L';font-variant-ligatures:normal;font-variant-position:normal;font-variant-caps:normal;font-variant-numeric:normal;font-variant-alternates:normal;font-variant-east-asian:normal;font-feature-settings:normal;font-variation-settings:normal;text-indent:0;text-align:start;text-decoration:none;text-decoration-line:none;text-decoration-style:solid;text-decoration-color:#000000;letter-spacing:0px;word-spacing:0px;text-transform:none;writing-mode:lr-tb;direction:ltr;text-orientation:mixed;dominant-baseline:auto;baseline-shift:baseline;text-anchor:start;white-space:normal;shape-padding:0;shape-margin:0;inline-size:0;clip-rule:nonzero;display:inline;overflow:visible;visibility:visible;isolation:auto;mix-blend-mode:normal;color-interpolation:sRGB;color-interpolation-filters:linearRGB;solid-color:#000000;solid-opacity:1;vector-effect:none;fill-opacity:1;fill-rule:nonzero;stroke-width:0.264583;stroke-linecap:butt;stroke-linejoin:miter;stroke-miterlimit:4;stroke-dasharray:none;stroke-dashoffset:0;stroke-opacity:1;filter-blend-mode:normal;filter-gaussianBlur-deviation:0;color-rendering:auto;image-rendering:auto;shape-rendering:auto;text-rendering:auto;enable-background:accumulate;stop-color:#000000;stop-opacity:1;stroke:none;fill:#ffffff" />
      </g>
      <g
         style="opacity:1;fill:#ffffff"
         id="g3798">
        <path
           id="path3800"
           d="m 103.04163,209.6696 h 1.58939 v -10.30953 h 2.64182 v -1.43904 h -2.64182 v -4.12382 h -1.58939 v 4.12382 h -2.53442 v 1.43904 h 2.53442 z"
           style="color:#000000;font-style:normal;font-variant:normal;font-weight:normal;font-stretch:normal;font-size:medium;line-height:1.25;font-family:'URW Gothic L';-inkscape-font-specification:'URW Gothic L';font-variant-ligatures:normal;font-variant-position:normal;font-variant-caps:normal;font-variant-numeric:normal;font-variant-alternates:normal;font-variant-east-asian:normal;font-feature-settings:normal;font-variation-settings:normal;text-indent:0;text-align:start;text-decoration:none;text-decoration-line:none;text-decoration-style:solid;text-decoration-color:#000000;letter-spacing:0px;word-spacing:0px;text-transform:none;writing-mode:lr-tb;direction:ltr;text-orientation:mixed;dominant-baseline:auto;baseline-shift:baseline;text-anchor:start;white-space:normal;shape-padding:0;shape-margin:0;inline-size:0;clip-rule:nonzero;display:inline;overflow:visible;visibility:visible;isolation:auto;mix-blend-mode:normal;color-interpolation:sRGB;color-interpolation-filters:linearRGB;solid-color:#000000;solid-opacity:1;vector-effect:none;fill:#ffffff;fill-opacity:1;fill-rule:nonzero;stroke-width:0.264583;stroke-linecap:butt;stroke-linejoin:miter;stroke-miterlimit:4;stroke-dasharray:none;stroke-dashoffset:0;stroke-opacity:1;filter-blend-mode:normal;filter-gaussianBlur-deviation:0;color-rendering:auto;image-rendering:auto;shape-rendering:auto;text-rendering:auto;enable-background:accumulate;stop-color:#000000;stop-opacity:1;stroke:none" />
        <path
           id="path3802"
           d="M 102.91016 193.66406 L 102.91016 197.78906 L 100.375 197.78906 L 100.375 199.49219 L 102.91016 199.49219 L 102.91016 209.80273 L 103.04102 209.80273 L 104.76367 209.80273 L 104.76367 199.49219 L 107.4043 199.49219 L 107.4043 197.78906 L 104.76367 197.78906 L 104.76367 193.66406 L 102.91016 193.66406 z M 103.17383 193.92969 L 104.49805 193.92969 L 104.49805 198.05273 L 107.14062 198.05273 L 107.14062 199.22852 L 104.49805 199.22852 L 104.49805 209.53711 L 103.17383 209.53711 L 103.17383 199.22852 L 100.63867 199.22852 L 100.63867 198.05273 L 103.17383 198.05273 L 103.17383 193.92969 z "
           style="color:#000000;font-style:normal;font-variant:normal;font-weight:normal;font-stretch:normal;font-size:medium;line-height:1.25;font-family:'URW Gothic L';-inkscape-font-specification:'URW Gothic L';font-variant-ligatures:normal;font-variant-position:normal;font-variant-caps:normal;font-variant-numeric:normal;font-variant-alternates:normal;font-variant-east-asian:normal;font-feature-settings:normal;font-variation-settings:normal;text-indent:0;text-align:start;text-decoration:none;text-decoration-line:none;text-decoration-style:solid;text-decoration-color:#000000;letter-spacing:0px;word-spacing:0px;text-transform:none;writing-mode:lr-tb;direction:ltr;text-orientation:mixed;dominant-baseline:auto;baseline-shift:baseline;text-anchor:start;white-space:normal;shape-padding:0;shape-margin:0;inline-size:0;clip-rule:nonzero;display:inline;overflow:visible;visibility:visible;isolation:auto;mix-blend-mode:normal;color-interpolation:sRGB;color-interpolation-filters:linearRGB;solid-color:#000000;solid-opacity:1;vector-effect:none;fill-opacity:1;fill-rule:nonzero;stroke-width:0.264583;stroke-linecap:butt;stroke-linejoin:miter;stroke-miterlimit:4;stroke-dasharray:none;stroke-dashoffset:0;stroke-opacity:1;filter-blend-mode:normal;filter-gaussianBlur-deviation:0;color-rendering:auto;image-rendering:auto;shape-rendering:auto;text-rendering:auto;enable-background:accumulate;stop-color:#000000;stop-opacity:1;stroke:none;fill:#ffffff" />
      </g>
      <g
         style="opacity:1;fill:#ffffff"
         id="g3804">
        <path
           id="path3806"
           d="m 119.25432,197.92103 h -1.58939 v 6.03537 c 0,1.43904 -0.21478,2.34112 -0.70878,3.07138 -0.66582,0.92357 -1.71825,1.46052 -2.94251,1.46052 -1.31017,0 -2.42704,-0.53695 -2.96399,-1.482 -0.36513,-0.60139 -0.55844,-1.54643 -0.55844,-2.74921 v -6.33606 h -1.58938 v 6.33606 c 0,1.73974 0.30069,2.964 0.92356,3.82312 0.8806,1.22426 2.29817,1.86861 4.05938,1.86861 1.82565,0 2.98547,-0.64435 3.78016,-2.10487 v 1.82565 h 1.58939 z"
           style="color:#000000;font-style:normal;font-variant:normal;font-weight:normal;font-stretch:normal;font-size:medium;line-height:1.25;font-family:'URW Gothic L';-inkscape-font-specification:'URW Gothic L';font-variant-ligatures:normal;font-variant-position:normal;font-variant-caps:normal;font-variant-numeric:normal;font-variant-alternates:normal;font-variant-east-asian:normal;font-feature-settings:normal;font-variation-settings:normal;text-indent:0;text-align:start;text-decoration:none;text-decoration-line:none;text-decoration-style:solid;text-decoration-color:#000000;letter-spacing:0px;word-spacing:0px;text-transform:none;writing-mode:lr-tb;direction:ltr;text-orientation:mixed;dominant-baseline:auto;baseline-shift:baseline;text-anchor:start;white-space:normal;shape-padding:0;shape-margin:0;inline-size:0;clip-rule:nonzero;display:inline;overflow:visible;visibility:visible;isolation:auto;mix-blend-mode:normal;color-interpolation:sRGB;color-interpolation-filters:linearRGB;solid-color:#000000;solid-opacity:1;vector-effect:none;fill:#ffffff;fill-opacity:1;fill-rule:nonzero;stroke-width:0.264583;stroke-linecap:butt;stroke-linejoin:miter;stroke-miterlimit:4;stroke-dasharray:none;stroke-dashoffset:0;stroke-opacity:1;filter-blend-mode:normal;filter-gaussianBlur-deviation:0;color-rendering:auto;image-rendering:auto;shape-rendering:auto;text-rendering:auto;enable-background:accumulate;stop-color:#000000;stop-opacity:1;stroke:none" />
        <path
           id="path3808"
           d="M 108.76953 197.78906 L 108.76953 204.25781 C 108.76953 206.0128 109.0727 207.26711 109.71875 208.1582 C 110.6258 209.41924 112.09129 210.08203 113.88477 210.08203 C 115.59389 210.08203 116.72323 209.42454 117.5332 208.16797 L 117.5332 209.80273 L 119.38672 209.80273 L 119.38672 197.78906 L 119.25391 197.78906 L 117.5332 197.78906 L 117.5332 203.95703 C 117.5332 205.38291 117.32134 206.25 116.8457 206.95312 C 116.20421 207.84061 115.19768 208.35547 114.01367 208.35547 C 112.73965 208.35547 111.67272 207.83666 111.16406 206.94141 L 111.16406 206.93945 L 111.16211 206.9375 C 110.81814 206.37096 110.62305 205.44642 110.62305 204.25781 L 110.62305 197.78906 L 108.76953 197.78906 z M 109.0332 198.05273 L 110.35938 198.05273 L 110.35938 204.25781 C 110.35938 205.47477 110.55121 206.43798 110.9375 207.07422 C 111.50326 208.06753 112.66845 208.62109 114.01367 208.62109 C 115.27661 208.62109 116.37223 208.06295 117.0625 207.10547 L 117.06445 207.10352 L 117.06641 207.10156 C 117.57876 206.34416 117.79688 205.40923 117.79688 203.95703 L 117.79688 198.05273 L 119.12109 198.05273 L 119.12109 209.53711 L 117.79688 209.53711 L 117.79688 207.84375 L 117.54883 207.78125 C 116.77216 209.20865 115.67929 209.81641 113.88477 209.81641 C 112.15582 209.81641 110.78774 209.19139 109.93359 208.00391 L 109.93359 208.00195 L 109.93164 208.00195 C 109.33195 207.17481 109.0332 205.98231 109.0332 204.25781 L 109.0332 198.05273 z "
           style="color:#000000;font-style:normal;font-variant:normal;font-weight:normal;font-stretch:normal;font-size:medium;line-height:1.25;font-family:'URW Gothic L';-inkscape-font-specification:'URW Gothic L';font-variant-ligatures:normal;font-variant-position:normal;font-variant-caps:normal;font-variant-numeric:normal;font-variant-alternates:normal;font-variant-east-asian:normal;font-feature-settings:normal;font-variation-settings:normal;text-indent:0;text-align:start;text-decoration:none;text-decoration-line:none;text-decoration-style:solid;text-decoration-color:#000000;letter-spacing:0px;word-spacing:0px;text-transform:none;writing-mode:lr-tb;direction:ltr;text-orientation:mixed;dominant-baseline:auto;baseline-shift:baseline;text-anchor:start;white-space:normal;shape-padding:0;shape-margin:0;inline-size:0;clip-rule:nonzero;display:inline;overflow:visible;visibility:visible;isolation:auto;mix-blend-mode:normal;color-interpolation:sRGB;color-interpolation-filters:linearRGB;solid-color:#000000;solid-opacity:1;vector-effect:none;fill-opacity:1;fill-rule:nonzero;stroke-width:0.264583;stroke-linecap:butt;stroke-linejoin:miter;stroke-miterlimit:4;stroke-dasharray:none;stroke-dashoffset:0;stroke-opacity:1;filter-blend-mode:normal;filter-gaussianBlur-deviation:0;color-rendering:auto;image-rendering:auto;shape-rendering:auto;text-rendering:auto;enable-background:accumulate;stop-color:#000000;stop-opacity:1;stroke:none;fill:#ffffff" />
      </g>
      <g
         style="opacity:1;fill:#ffffff"
         id="g3810">
        <path
           id="path3812"
           d="m 133.95447,193.79721 h -1.58939 v 5.99242 c -1.15982,-1.39608 -2.77068,-2.14782 -4.61781,-2.14782 -3.5439,0 -6.25016,2.6633 -6.25016,6.16424 0,3.47947 2.77069,6.14277 6.40051,6.14277 1.95451,0 3.28616,-0.70878 4.46746,-2.40556 v 2.12634 h 1.58939 z m -6.25016,5.30512 c 2.59887,0 4.72521,2.08338 4.72521,4.66077 0,2.57738 -2.06191,4.7252 -4.57486,4.7252 -2.68477,0 -4.74668,-2.06191 -4.74668,-4.74668 0,-2.57739 2.04043,-4.63929 4.59633,-4.63929 z"
           style="color:#000000;font-style:normal;font-variant:normal;font-weight:normal;font-stretch:normal;font-size:medium;line-height:1.25;font-family:'URW Gothic L';-inkscape-font-specification:'URW Gothic L';font-variant-ligatures:normal;font-variant-position:normal;font-variant-caps:normal;font-variant-numeric:normal;font-variant-alternates:normal;font-variant-east-asian:normal;font-feature-settings:normal;font-variation-settings:normal;text-indent:0;text-align:start;text-decoration:none;text-decoration-line:none;text-decoration-style:solid;text-decoration-color:#000000;letter-spacing:0px;word-spacing:0px;text-transform:none;writing-mode:lr-tb;direction:ltr;text-orientation:mixed;dominant-baseline:auto;baseline-shift:baseline;text-anchor:start;white-space:normal;shape-padding:0;shape-margin:0;inline-size:0;clip-rule:nonzero;display:inline;overflow:visible;visibility:visible;isolation:auto;mix-blend-mode:normal;color-interpolation:sRGB;color-interpolation-filters:linearRGB;solid-color:#000000;solid-opacity:1;vector-effect:none;fill:#ffffff;fill-opacity:1;fill-rule:nonzero;stroke-width:0.264583;stroke-linecap:butt;stroke-linejoin:miter;stroke-miterlimit:4;stroke-dasharray:none;stroke-dashoffset:0;stroke-opacity:1;filter-blend-mode:normal;filter-gaussianBlur-deviation:0;color-rendering:auto;image-rendering:auto;shape-rendering:auto;text-rendering:auto;enable-background:accumulate;stop-color:#000000;stop-opacity:1;stroke:none" />
        <path
           id="path3814"
           d="M 132.23242 193.66406 L 132.23242 199.52344 C 131.06627 198.2476 129.52605 197.50977 127.74805 197.50977 C 124.13787 197.50977 121.36523 200.23753 121.36523 203.80664 C 121.36523 207.35634 124.20391 210.08203 127.89844 210.08203 C 129.76416 210.08203 131.08371 209.35287 132.23242 207.84766 L 132.23242 209.80273 L 134.08594 209.80273 L 134.08594 193.66406 L 133.95508 193.66406 L 132.23242 193.66406 z M 132.49805 193.92969 L 133.82227 193.92969 L 133.82227 209.53711 L 132.49805 209.53711 L 132.49805 207.12109 L 132.25586 207.4668 C 131.09133 209.13949 129.82096 209.81641 127.89844 209.81641 C 124.33333 209.81641 121.62891 207.21588 121.62891 203.80664 C 121.62891 200.37388 124.27043 197.77344 127.74805 197.77344 C 129.55928 197.77344 131.12741 198.50728 132.26367 199.875 L 132.49805 200.15625 L 132.49805 193.92969 z M 127.70508 198.9707 C 125.07803 198.9707 122.97656 201.09498 122.97656 203.74219 C 122.97656 206.49469 125.10297 208.62109 127.85547 208.62109 C 130.4438 208.62109 132.5625 206.41161 132.5625 203.76367 C 132.5625 201.11352 130.37465 198.9707 127.70508 198.9707 z M 127.70508 199.23438 C 130.23325 199.23437 132.29688 201.25904 132.29688 203.76367 C 132.29688 206.2705 130.29304 208.35547 127.85547 208.35547 C 125.23843 208.35547 123.24023 206.35922 123.24023 203.74219 C 123.24023 201.23462 125.22033 199.23438 127.70508 199.23438 z "
           style="color:#000000;font-style:normal;font-variant:normal;font-weight:normal;font-stretch:normal;font-size:medium;line-height:1.25;font-family:'URW Gothic L';-inkscape-font-specification:'URW Gothic L';font-variant-ligatures:normal;font-variant-position:normal;font-variant-caps:normal;font-variant-numeric:normal;font-variant-alternates:normal;font-variant-east-asian:normal;font-feature-settings:normal;font-variation-settings:normal;text-indent:0;text-align:start;text-decoration:none;text-decoration-line:none;text-decoration-style:solid;text-decoration-color:#000000;letter-spacing:0px;word-spacing:0px;text-transform:none;writing-mode:lr-tb;direction:ltr;text-orientation:mixed;dominant-baseline:auto;baseline-shift:baseline;text-anchor:start;white-space:normal;shape-padding:0;shape-margin:0;inline-size:0;clip-rule:nonzero;display:inline;overflow:visible;visibility:visible;isolation:auto;mix-blend-mode:normal;color-interpolation:sRGB;color-interpolation-filters:linearRGB;solid-color:#000000;solid-opacity:1;vector-effect:none;fill-opacity:1;fill-rule:nonzero;stroke-width:0.264583;stroke-linecap:butt;stroke-linejoin:miter;stroke-miterlimit:4;stroke-dasharray:none;stroke-dashoffset:0;stroke-opacity:1;filter-blend-mode:normal;filter-gaussianBlur-deviation:0;color-rendering:auto;image-rendering:auto;shape-rendering:auto;text-rendering:auto;enable-background:accumulate;stop-color:#000000;stop-opacity:1;stroke:none;fill:#ffffff" />
      </g>
      <g
         style="opacity:1;fill:#ffffff"
         id="g3816">
        <path
           id="path3818"
           d="m 136.67247,209.6696 h 1.58938 v -11.74857 h -1.58938 z m 0,-13.16614 h 1.58938 v -2.70625 h -1.58938 z"
           style="color:#000000;font-style:normal;font-variant:normal;font-weight:normal;font-stretch:normal;font-size:medium;line-height:1.25;font-family:'URW Gothic L';-inkscape-font-specification:'URW Gothic L';font-variant-ligatures:normal;font-variant-position:normal;font-variant-caps:normal;font-variant-numeric:normal;font-variant-alternates:normal;font-variant-east-asian:normal;font-feature-settings:normal;font-variation-settings:normal;text-indent:0;text-align:start;text-decoration:none;text-decoration-line:none;text-decoration-style:solid;text-decoration-color:#000000;letter-spacing:0px;word-spacing:0px;text-transform:none;writing-mode:lr-tb;direction:ltr;text-orientation:mixed;dominant-baseline:auto;baseline-shift:baseline;text-anchor:start;white-space:normal;shape-padding:0;shape-margin:0;inline-size:0;clip-rule:nonzero;display:inline;overflow:visible;visibility:visible;isolation:auto;mix-blend-mode:normal;color-interpolation:sRGB;color-interpolation-filters:linearRGB;solid-color:#000000;solid-opacity:1;vector-effect:none;fill:#ffffff;fill-opacity:1;fill-rule:nonzero;stroke-width:0.264583;stroke-linecap:butt;stroke-linejoin:miter;stroke-miterlimit:4;stroke-dasharray:none;stroke-dashoffset:0;stroke-opacity:1;filter-blend-mode:normal;filter-gaussianBlur-deviation:0;color-rendering:auto;image-rendering:auto;shape-rendering:auto;text-rendering:auto;enable-background:accumulate;stop-color:#000000;stop-opacity:1;stroke:none" />
        <path
           id="path3820"
           d="M 136.54102 193.66406 L 136.54102 196.63672 L 136.67188 196.63672 L 138.39453 196.63672 L 138.39453 193.66406 L 136.54102 193.66406 z M 136.80469 193.92969 L 138.12891 193.92969 L 138.12891 196.37109 L 136.80469 196.37109 L 136.80469 193.92969 z M 136.54102 197.78906 L 136.54102 209.80273 L 136.67188 209.80273 L 138.39453 209.80273 L 138.39453 197.78906 L 136.54102 197.78906 z M 136.80469 198.05273 L 138.12891 198.05273 L 138.12891 209.53711 L 136.80469 209.53711 L 136.80469 198.05273 z "
           style="color:#000000;font-style:normal;font-variant:normal;font-weight:normal;font-stretch:normal;font-size:medium;line-height:1.25;font-family:'URW Gothic L';-inkscape-font-specification:'URW Gothic L';font-variant-ligatures:normal;font-variant-position:normal;font-variant-caps:normal;font-variant-numeric:normal;font-variant-alternates:normal;font-variant-east-asian:normal;font-feature-settings:normal;font-variation-settings:normal;text-indent:0;text-align:start;text-decoration:none;text-decoration-line:none;text-decoration-style:solid;text-decoration-color:#000000;letter-spacing:0px;word-spacing:0px;text-transform:none;writing-mode:lr-tb;direction:ltr;text-orientation:mixed;dominant-baseline:auto;baseline-shift:baseline;text-anchor:start;white-space:normal;shape-padding:0;shape-margin:0;inline-size:0;clip-rule:nonzero;display:inline;overflow:visible;visibility:visible;isolation:auto;mix-blend-mode:normal;color-interpolation:sRGB;color-interpolation-filters:linearRGB;solid-color:#000000;solid-opacity:1;vector-effect:none;fill-opacity:1;fill-rule:nonzero;stroke-width:0.264583;stroke-linecap:butt;stroke-linejoin:miter;stroke-miterlimit:4;stroke-dasharray:none;stroke-dashoffset:0;stroke-opacity:1;filter-blend-mode:normal;filter-gaussianBlur-deviation:0;color-rendering:auto;image-rendering:auto;shape-rendering:auto;text-rendering:auto;enable-background:accumulate;stop-color:#000000;stop-opacity:1;stroke:none;fill:#ffffff" />
      </g>
      <g
         style="opacity:1;fill:#ffffff"
         id="g3822">
        <path
           id="path3824"
           d="m 146.66453,197.64181 c -3.47947,0 -6.16424,2.64182 -6.16424,6.07833 0,3.60834 2.64182,6.22868 6.29311,6.22868 3.43651,0 5.97094,-2.59886 5.97094,-6.12129 0,-3.58686 -2.57738,-6.18572 -6.09981,-6.18572 z m 0,1.46052 c 2.57738,0 4.48894,2.01895 4.48894,4.74668 0,2.68477 -1.84712,4.63929 -4.40303,4.63929 -2.70625,0 -4.63929,-1.97599 -4.63929,-4.7252 0,-2.6633 1.95452,-4.66077 4.55338,-4.66077 z"
           style="color:#000000;font-style:normal;font-variant:normal;font-weight:normal;font-stretch:normal;font-size:medium;line-height:1.25;font-family:'URW Gothic L';-inkscape-font-specification:'URW Gothic L';font-variant-ligatures:normal;font-variant-position:normal;font-variant-caps:normal;font-variant-numeric:normal;font-variant-alternates:normal;font-variant-east-asian:normal;font-feature-settings:normal;font-variation-settings:normal;text-indent:0;text-align:start;text-decoration:none;text-decoration-line:none;text-decoration-style:solid;text-decoration-color:#000000;letter-spacing:0px;word-spacing:0px;text-transform:none;writing-mode:lr-tb;direction:ltr;text-orientation:mixed;dominant-baseline:auto;baseline-shift:baseline;text-anchor:start;white-space:normal;shape-padding:0;shape-margin:0;inline-size:0;clip-rule:nonzero;display:inline;overflow:visible;visibility:visible;isolation:auto;mix-blend-mode:normal;color-interpolation:sRGB;color-interpolation-filters:linearRGB;solid-color:#000000;solid-opacity:1;vector-effect:none;fill:#ffffff;fill-opacity:1;fill-rule:nonzero;stroke-width:0.264583;stroke-linecap:butt;stroke-linejoin:miter;stroke-miterlimit:4;stroke-dasharray:none;stroke-dashoffset:0;stroke-opacity:1;filter-blend-mode:normal;filter-gaussianBlur-deviation:0;color-rendering:auto;image-rendering:auto;shape-rendering:auto;text-rendering:auto;enable-background:accumulate;stop-color:#000000;stop-opacity:1;stroke:none" />
        <path
           id="path3826"
           d="M 146.66406 197.50977 C 143.11763 197.50977 140.36719 200.21529 140.36719 203.7207 C 140.36719 207.39361 143.07839 210.08203 146.79297 210.08203 C 150.29618 210.08203 152.89648 207.41401 152.89648 203.82812 C 152.89648 200.17789 150.25156 197.50977 146.66406 197.50977 z M 146.66406 197.77344 C 150.12142 197.77344 152.63281 200.30464 152.63281 203.82812 C 152.63281 207.2871 150.16278 209.81641 146.79297 209.81641 C 143.20497 209.81641 140.63281 207.26447 140.63281 203.7207 C 140.63281 200.35309 143.25155 197.77344 146.66406 197.77344 z M 146.66406 198.9707 C 143.99742 198.9707 141.97852 201.03565 141.97852 203.76367 C 141.97852 206.57489 143.97935 208.62109 146.75 208.62109 C 149.37335 208.62109 151.28516 206.59506 151.28516 203.84961 C 151.28516 201.06007 149.31053 198.9707 146.66406 198.9707 z M 146.66406 199.23438 C 149.17236 199.23438 151.02148 201.18368 151.02148 203.84961 C 151.02148 206.4737 149.23847 208.35547 146.75 208.35547 C 144.10815 208.35547 142.24414 206.45087 142.24414 203.76367 C 142.24414 201.1651 144.13299 199.23437 146.66406 199.23438 z "
           style="color:#000000;font-style:normal;font-variant:normal;font-weight:normal;font-stretch:normal;font-size:medium;line-height:1.25;font-family:'URW Gothic L';-inkscape-font-specification:'URW Gothic L';font-variant-ligatures:normal;font-variant-position:normal;font-variant-caps:normal;font-variant-numeric:normal;font-variant-alternates:normal;font-variant-east-asian:normal;font-feature-settings:normal;font-variation-settings:normal;text-indent:0;text-align:start;text-decoration:none;text-decoration-line:none;text-decoration-style:solid;text-decoration-color:#000000;letter-spacing:0px;word-spacing:0px;text-transform:none;writing-mode:lr-tb;direction:ltr;text-orientation:mixed;dominant-baseline:auto;baseline-shift:baseline;text-anchor:start;white-space:normal;shape-padding:0;shape-margin:0;inline-size:0;clip-rule:nonzero;display:inline;overflow:visible;visibility:visible;isolation:auto;mix-blend-mode:normal;color-interpolation:sRGB;color-interpolation-filters:linearRGB;solid-color:#000000;solid-opacity:1;vector-effect:none;fill-opacity:1;fill-rule:nonzero;stroke-width:0.264583;stroke-linecap:butt;stroke-linejoin:miter;stroke-miterlimit:4;stroke-dasharray:none;stroke-dashoffset:0;stroke-opacity:1;filter-blend-mode:normal;filter-gaussianBlur-deviation:0;color-rendering:auto;image-rendering:auto;shape-rendering:auto;text-rendering:auto;enable-background:accumulate;stop-color:#000000;stop-opacity:1;stroke:none;fill:#ffffff" />
      </g>
    </g>
  </g>
</svg>
