<?xml version="1.0" encoding="UTF-8" standalone="no"?>
<svg
   xmlns:dc="http://purl.org/dc/elements/1.1/"
   xmlns:cc="http://creativecommons.org/ns#"
   xmlns:rdf="http://www.w3.org/1999/02/22-rdf-syntax-ns#"
   xmlns:svg="http://www.w3.org/2000/svg"
   xmlns="http://www.w3.org/2000/svg"
   xmlns:sodipodi="http://sodipodi.sourceforge.net/DTD/sodipodi-0.dtd"
   xmlns:inkscape="http://www.inkscape.org/namespaces/inkscape"
   inkscape:version="1.0beta1 (fe3e306, 2019-09-17)"
   sodipodi:docname="logo3.svg"
   id="svg3161"
   version="1.1"
   viewBox="0 0 123.03124 123.03125"
   height="465"
   width="465">
  <defs
     id="defs3155" />
  <sodipodi:namedview
     units="px"
     inkscape:window-maximized="1"
     inkscape:window-y="0"
     inkscape:window-x="0"
     inkscape:window-height="685"
     inkscape:window-width="1366"
     showgrid="false"
     inkscape:document-rotation="0"
     inkscape:current-layer="layer1"
     inkscape:document-units="mm"
     inkscape:cy="438.39395"
     inkscape:cx="377.03919"
     inkscape:zoom="0.24748737"
     inkscape:pageshadow="2"
     inkscape:pageopacity="0.0"
     borderopacity="1.0"
     bordercolor="#666666"
     pagecolor="#ffffff"
     id="base" />
  <metadata
     id="metadata3158">
    <rdf:RDF>
      <cc:Work
         rdf:about="">
        <dc:format>image/svg+xml</dc:format>
        <dc:type
           rdf:resource="http://purl.org/dc/dcmitype/StillImage" />
        <dc:title></dc:title>
      </cc:Work>
    </rdf:RDF>
  </metadata>
  <g
     id="layer1"
     inkscape:groupmode="layer"
     inkscape:label="Layer 1">
    <g
       style="fill:#ffffff"
       transform="translate(-43.450193,-87.051)"
       id="g3854">
      <path
         id="path3020"
         d="m 74.90618,87.05118 h 31.05429 c 13.91656,0 25.30906,11.39244 25.30906,25.3092 0,10.68106 -6.7132,19.87176 -16.12565,23.57108 l 19.50566,33.78336 h -0.0335 l 7.04021,12.19204 h -7.91623 a 7.101181,7.101181 0 0 1 -6.14913,-3.55081 l -10.83144,-18.75814 h 0.0335 L 104.13488,137.67467 H 85.30999 v 21.63597 h -3.30245 a 7.101181,7.101181 0 0 1 -7.10136,-7.10167 v -24.93952 h 31.05429 1.36183 v -0.0629 c 7.6437,-0.67855 13.54373,-7.01213 13.54373,-14.84643 0,-8.29403 -6.61153,-14.90549 -14.90556,-14.90549 H 92.93096 l 14.39134,24.93325 h -7.90985 a 7.101181,7.101181 0 0 1 -6.1488,-3.54982 z"
         style="opacity:1;fill:#ffffff;fill-opacity:1;stroke-width:10.2;stroke-linecap:square;stroke-opacity:0.142857;stop-opacity:1"
         inkscape:connector-curvature="0" />
      <g
         aria-label="AR studio"
         id="text3024"
         style="font-size:21.4782px;line-height:1.25;font-family:sans-serif;text-align:end;letter-spacing:0px;word-spacing:0px;text-anchor:end;opacity:1;fill:#ffffff;fill-opacity:1;stroke-width:0.264583;stop-opacity:1">
        <g
           id="g3780"
           style="opacity:1;fill:#ffffff">
          <path
             style="color:#000000;font-style:normal;font-variant:normal;font-weight:normal;font-stretch:normal;font-size:medium;line-height:1.25;font-family:'URW Gothic L';-inkscape-font-specification:'URW Gothic L';font-variant-ligatures:normal;font-variant-position:normal;font-variant-caps:normal;font-variant-numeric:normal;font-variant-alternates:normal;font-variant-east-asian:normal;font-feature-settings:normal;font-variation-settings:normal;text-indent:0;text-align:start;text-decoration:none;text-decoration-line:none;text-decoration-style:solid;text-decoration-color:#000000;letter-spacing:0px;word-spacing:0px;text-transform:none;writing-mode:lr-tb;direction:ltr;text-orientation:mixed;dominant-baseline:auto;baseline-shift:baseline;text-anchor:start;white-space:normal;shape-padding:0;shape-margin:0;inline-size:0;clip-rule:nonzero;display:inline;overflow:visible;visibility:visible;isolation:auto;mix-blend-mode:normal;color-interpolation:sRGB;color-interpolation-filters:linearRGB;solid-color:#000000;solid-opacity:1;vector-effect:none;fill:#ffffff;fill-opacity:1;fill-rule:nonzero;stroke:none;stroke-width:0.264583;stroke-linecap:butt;stroke-linejoin:miter;stroke-miterlimit:4;stroke-dasharray:none;stroke-dashoffset:0;stroke-opacity:1;color-rendering:auto;image-rendering:auto;shape-rendering:auto;text-rendering:auto;enable-background:accumulate;stop-color:#000000;stop-opacity:1"
             d="m 57.235678,209.6696 h 1.675299 l 2.319646,-5.34807 h 7.388501 l 2.298167,5.34807 h 1.739735 l -6.830068,-15.87239 h -1.782691 z m 4.596335,-6.78711 3.114339,-7.28111 3.049904,7.28111 z"
             id="path3782"
             inkscape:connector-curvature="0" />
          <path
             style="color:#000000;font-style:normal;font-variant:normal;font-weight:normal;font-stretch:normal;font-size:medium;line-height:1.25;font-family:'URW Gothic L';-inkscape-font-specification:'URW Gothic L';font-variant-ligatures:normal;font-variant-position:normal;font-variant-caps:normal;font-variant-numeric:normal;font-variant-alternates:normal;font-variant-east-asian:normal;font-feature-settings:normal;font-variation-settings:normal;text-indent:0;text-align:start;text-decoration:none;text-decoration-line:none;text-decoration-style:solid;text-decoration-color:#000000;letter-spacing:0px;word-spacing:0px;text-transform:none;writing-mode:lr-tb;direction:ltr;text-orientation:mixed;dominant-baseline:auto;baseline-shift:baseline;text-anchor:start;white-space:normal;shape-padding:0;shape-margin:0;inline-size:0;clip-rule:nonzero;display:inline;overflow:visible;visibility:visible;isolation:auto;mix-blend-mode:normal;color-interpolation:sRGB;color-interpolation-filters:linearRGB;solid-color:#000000;solid-opacity:1;vector-effect:none;fill:#ffffff;fill-opacity:1;fill-rule:nonzero;stroke:none;stroke-width:0.264583;stroke-linecap:butt;stroke-linejoin:miter;stroke-miterlimit:4;stroke-dasharray:none;stroke-dashoffset:0;stroke-opacity:1;color-rendering:auto;image-rendering:auto;shape-rendering:auto;text-rendering:auto;enable-background:accumulate;stop-color:#000000;stop-opacity:1"
             d="m 63.957031,193.66406 -6.921875,16.13867 h 0.201172 1.761719 l 2.320312,-5.34961 h 7.212891 l 2.298828,5.34961 h 2.027344 l -6.94336,-16.13867 z m 0.173828,0.26563 h 1.609375 l 6.714844,15.60742 h -1.451172 l -2.296875,-5.34766 h -7.5625 l -2.320312,5.34766 H 57.4375 Z m 0.816407,1.33203 -3.316407,7.7539 h 0.201172 6.363281 z m -0.002,0.67969 2.853516,6.80859 H 62.03125 Z"
             id="path3784"
             inkscape:connector-curvature="0" />
        </g>
        <g
           id="g3786"
           style="opacity:1;fill:#ffffff">
          <path
             style="color:#000000;font-style:normal;font-variant:normal;font-weight:normal;font-stretch:normal;font-size:medium;line-height:1.25;font-family:'URW Gothic L';-inkscape-font-specification:'URW Gothic L';font-variant-ligatures:normal;font-variant-position:normal;font-variant-caps:normal;font-variant-numeric:normal;font-variant-alternates:normal;font-variant-east-asian:normal;font-feature-settings:normal;font-variation-settings:normal;text-indent:0;text-align:start;text-decoration:none;text-decoration-line:none;text-decoration-style:solid;text-decoration-color:#000000;letter-spacing:0px;word-spacing:0px;text-transform:none;writing-mode:lr-tb;direction:ltr;text-orientation:mixed;dominant-baseline:auto;baseline-shift:baseline;text-anchor:start;white-space:normal;shape-padding:0;shape-margin:0;inline-size:0;clip-rule:nonzero;display:inline;overflow:visible;visibility:visible;isolation:auto;mix-blend-mode:normal;color-interpolation:sRGB;color-interpolation-filters:linearRGB;solid-color:#000000;solid-opacity:1;vector-effect:none;fill:#ffffff;fill-opacity:1;fill-rule:nonzero;stroke:none;stroke-width:0.264583;stroke-linecap:butt;stroke-linejoin:miter;stroke-miterlimit:4;stroke-dasharray:none;stroke-dashoffset:0;stroke-opacity:1;color-rendering:auto;image-rendering:auto;shape-rendering:auto;text-rendering:auto;enable-background:accumulate;stop-color:#000000;stop-opacity:1"
             d="m 80.608994,203.74162 c 3.049905,-0.32218 4.682248,-2.01895 4.682248,-4.8326 0,-1.99747 -0.83765,-3.50094 -2.38408,-4.33859 -0.987997,-0.53696 -2.362602,-0.77322 -4.445988,-0.77322 h -3.930511 v 15.87239 h 1.589387 v -14.43335 h 2.233733 c 1.6753,0 2.792166,0.17183 3.651294,0.57991 1.07391,0.51548 1.6753,1.58939 1.6753,3.02843 0,1.80417 -0.816172,2.92103 -2.405558,3.3506 -0.751737,0.1933 -1.782691,0.27921 -3.543904,0.27921 l 5.348072,7.1952 h 1.975995 z"
             id="path3788"
             inkscape:connector-curvature="0" />
          <path
             style="color:#000000;font-style:normal;font-variant:normal;font-weight:normal;font-stretch:normal;font-size:medium;line-height:1.25;font-family:'URW Gothic L';-inkscape-font-specification:'URW Gothic L';font-variant-ligatures:normal;font-variant-position:normal;font-variant-caps:normal;font-variant-numeric:normal;font-variant-alternates:normal;font-variant-east-asian:normal;font-feature-settings:normal;font-variation-settings:normal;text-indent:0;text-align:start;text-decoration:none;text-decoration-line:none;text-decoration-style:solid;text-decoration-color:#000000;letter-spacing:0px;word-spacing:0px;text-transform:none;writing-mode:lr-tb;direction:ltr;text-orientation:mixed;dominant-baseline:auto;baseline-shift:baseline;text-anchor:start;white-space:normal;shape-padding:0;shape-margin:0;inline-size:0;clip-rule:nonzero;display:inline;overflow:visible;visibility:visible;isolation:auto;mix-blend-mode:normal;color-interpolation:sRGB;color-interpolation-filters:linearRGB;solid-color:#000000;solid-opacity:1;vector-effect:none;fill:#ffffff;fill-opacity:1;fill-rule:nonzero;stroke:none;stroke-width:0.264583;stroke-linecap:butt;stroke-linejoin:miter;stroke-miterlimit:4;stroke-dasharray:none;stroke-dashoffset:0;stroke-opacity:1;color-rendering:auto;image-rendering:auto;shape-rendering:auto;text-rendering:auto;enable-background:accumulate;stop-color:#000000;stop-opacity:1"
             d="m 74.398438,193.66406 v 16.13867 h 1.853515 v -14.43359 h 2.101563 c 1.665371,0 2.761919,0.17166 3.59375,0.56641 1.026659,0.4928 1.601562,1.50602 1.601562,2.9082 0,0.88214 -0.198919,1.58203 -0.582031,2.11328 -0.382608,0.53055 -0.953833,0.90049 -1.724609,1.10938 -0.73264,0.18839 -1.754808,0.27539 -3.511719,0.27539 h -0.263672 l 5.544922,7.46093 h 2.308593 l -4.486328,-5.98242 c 1.43372,-0.18915 2.581532,-0.66849 3.355469,-1.46875 0.815813,-0.84356 1.234375,-2.01095 1.234375,-3.44336 0,-2.03445 -0.865995,-3.59343 -2.453125,-4.45312 -1.018925,-0.55377 -2.416378,-0.79102 -4.509765,-0.79102 z m 0.263671,0.26563 h 3.798829 c 2.073384,0 3.425743,0.23766 4.382812,0.75781 1.50573,0.8156 2.314453,2.26022 2.314453,4.2207 0,1.38125 -0.397321,2.47099 -1.160156,3.25977 -0.762835,0.78878 -1.899067,1.2826 -3.402344,1.44141 l -0.232422,0.0254 0.140625,0.18554 4.28711,5.7168 h -1.646485 l -5.164062,-6.94922 c 1.550011,-0.0112 2.611143,-0.0793 3.328125,-0.26367 v -0.002 c 0.817064,-0.22084 1.450726,-0.62337 1.873047,-1.20899 0.42232,-0.58562 0.630859,-1.3475 0.630859,-2.26953 0,-1.4759 -0.62884,-2.60832 -1.75,-3.14648 -0.886264,-0.42097 -2.024639,-0.59375 -3.708984,-0.59375 h -2.365235 v 14.43359 h -1.326172 z"
             id="path3790"
             inkscape:connector-curvature="0" />
        </g>
        <g
           id="g3792"
           style="opacity:1;fill:#ffffff">
          <path
             style="color:#000000;font-style:normal;font-variant:normal;font-weight:normal;font-stretch:normal;font-size:medium;line-height:1.25;font-family:'URW Gothic L';-inkscape-font-specification:'URW Gothic L';font-variant-ligatures:normal;font-variant-position:normal;font-variant-caps:normal;font-variant-numeric:normal;font-variant-alternates:normal;font-variant-east-asian:normal;font-feature-settings:normal;font-variation-settings:normal;text-indent:0;text-align:start;text-decoration:none;text-decoration-line:none;text-decoration-style:solid;text-decoration-color:#000000;letter-spacing:0px;word-spacing:0px;text-transform:none;writing-mode:lr-tb;direction:ltr;text-orientation:mixed;dominant-baseline:auto;baseline-shift:baseline;text-anchor:start;white-space:normal;shape-padding:0;shape-margin:0;inline-size:0;clip-rule:nonzero;display:inline;overflow:visible;visibility:visible;isolation:auto;mix-blend-mode:normal;color-interpolation:sRGB;color-interpolation-filters:linearRGB;solid-color:#000000;solid-opacity:1;vector-effect:none;fill:#ffffff;fill-opacity:1;fill-rule:nonzero;stroke:none;stroke-width:0.264583;stroke-linecap:butt;stroke-linejoin:miter;stroke-miterlimit:4;stroke-dasharray:none;stroke-dashoffset:0;stroke-opacity:1;color-rendering:auto;image-rendering:auto;shape-rendering:auto;text-rendering:auto;enable-background:accumulate;stop-color:#000000;stop-opacity:1"
             d="m 92.288102,206.21161 c 0.02148,2.27669 1.524952,3.73721 3.780163,3.73721 2.104864,0 3.58686,-1.50348 3.58686,-3.6513 0,-1.43904 -0.665825,-2.42703 -2.04043,-3.00694 -1.78269,-0.73026 -1.868603,-0.77322 -2.212254,-0.94505 -0.730259,-0.36512 -1.07391,-0.85912 -1.07391,-1.54643 0,-0.94504 0.751737,-1.69677 1.696778,-1.69677 1.030953,0 1.632343,0.60139 1.718256,1.71825 h 1.610865 c -0.06443,-1.89008 -1.417562,-3.17877 -3.307643,-3.17877 -1.91156,0 -3.329121,1.39608 -3.329121,3.30764 0,0.83765 0.300694,1.56791 0.880606,2.10487 0.493999,0.45104 0.515477,0.45104 2.169298,1.13834 0.708781,0.27922 1.224258,0.53696 1.524952,0.73026 0.472521,0.32217 0.751737,0.88061 0.751737,1.52495 0,1.1813 -0.837649,2.04043 -1.975994,2.04043 -1.31017,0 -2.126342,-0.83765 -2.212255,-2.27669 z"
             id="path3794"
             inkscape:connector-curvature="0" />
          <path
             style="color:#000000;font-style:normal;font-variant:normal;font-weight:normal;font-stretch:normal;font-size:medium;line-height:1.25;font-family:'URW Gothic L';-inkscape-font-specification:'URW Gothic L';font-variant-ligatures:normal;font-variant-position:normal;font-variant-caps:normal;font-variant-numeric:normal;font-variant-alternates:normal;font-variant-east-asian:normal;font-feature-settings:normal;font-variation-settings:normal;text-indent:0;text-align:start;text-decoration:none;text-decoration-line:none;text-decoration-style:solid;text-decoration-color:#000000;letter-spacing:0px;word-spacing:0px;text-transform:none;writing-mode:lr-tb;direction:ltr;text-orientation:mixed;dominant-baseline:auto;baseline-shift:baseline;text-anchor:start;white-space:normal;shape-padding:0;shape-margin:0;inline-size:0;clip-rule:nonzero;display:inline;overflow:visible;visibility:visible;isolation:auto;mix-blend-mode:normal;color-interpolation:sRGB;color-interpolation-filters:linearRGB;solid-color:#000000;solid-opacity:1;vector-effect:none;fill:#ffffff;fill-opacity:1;fill-rule:nonzero;stroke:none;stroke-width:0.264583;stroke-linecap:butt;stroke-linejoin:miter;stroke-miterlimit:4;stroke-dasharray:none;stroke-dashoffset:0;stroke-opacity:1;color-rendering:auto;image-rendering:auto;shape-rendering:auto;text-rendering:auto;enable-background:accumulate;stop-color:#000000;stop-opacity:1"
             d="m 96.046875,197.50977 c -1.975971,0 -3.460937,1.46249 -3.460937,3.43945 0,0.86931 0.314816,1.64103 0.921874,2.20312 h 0.002 c 0.247704,0.22617 0.393581,0.35236 0.677734,0.5 0.284153,0.14765 0.702574,0.31854 1.529297,0.66211 h 0.002 v 0.002 c 0.703302,0.27706 1.214114,0.53371 1.501953,0.71875 0.431612,0.29613 0.691406,0.80766 0.691406,1.41211 0,1.11876 -0.771967,1.9082 -1.84375,1.9082 -0.626891,0 -1.118772,-0.19668 -1.470703,-0.55859 -0.351931,-0.36192 -0.567812,-0.89759 -0.609375,-1.59376 l -0.0078,-0.12304 h -1.826172 l 0.002,0.13281 c 0.01101,1.1672 0.404287,2.13812 1.091797,2.81445 0.68751,0.67634 1.664149,1.05469 2.820312,1.05469 2.167861,0 3.71875,-1.57648 3.71875,-3.78515 0,-1.47985 -0.711004,-2.53403 -2.121093,-3.12891 h -0.002 c -1.782385,-0.73014 -1.859473,-0.76958 -2.203124,-0.94141 -0.702417,-0.3512 -1,-0.78452 -1,-1.42773 0,-0.87489 0.689566,-1.56446 1.564453,-1.56445 0.489753,0 0.856901,0.1401 1.11914,0.40234 0.262239,0.26224 0.425512,0.65665 0.466797,1.19336 l 0.0098,0.12304 h 1.871094 l -0.0059,-0.13671 c -0.06651,-1.95107 -1.48924,-3.30664 -3.439453,-3.30664 z m 0,0.26367 c 1.773458,0 2.986293,1.17833 3.119141,2.91406 h -1.339844 c -0.06298,-0.50837 -0.205162,-0.9493 -0.494141,-1.23828 -0.317672,-0.31767 -0.76544,-0.47852 -1.30664,-0.47852 -1.015195,0 -1.830078,0.81293 -1.830079,1.82813 0,0.7314 0.390337,1.28502 1.148438,1.66406 0.343395,0.1717 0.43959,0.22039 2.21875,0.94922 1.339121,0.56494 1.960938,1.48653 1.960938,2.88477 0,2.08696 -1.413211,3.51953 -3.455079,3.51953 -1.099047,0 -2.001367,-0.35347 -2.634765,-0.97657 -0.605316,-0.59547 -0.95002,-1.45393 -0.990235,-2.49609 h 1.330079 c 0.06621,0.67149 0.258335,1.25156 0.634765,1.63867 0.405176,0.41667 0.976878,0.63867 1.660156,0.63867 1.204907,0 2.107422,-0.92999 2.107422,-2.17382 0,-0.68256 -0.297324,-1.28423 -0.808593,-1.63282 l -0.002,-0.002 h -0.002 c -0.313226,-0.20136 -0.831793,-0.46114 -1.544922,-0.74219 h -0.002 c -0.825307,-0.34298 -1.244558,-0.51555 -1.507812,-0.65234 -0.263541,-0.13694 -0.3748,-0.23606 -0.621094,-0.46094 -0.552765,-0.51182 -0.837891,-1.20182 -0.837891,-2.00781 0,-1.84616 1.350117,-3.17578 3.197266,-3.17578 z"
             id="path3796"
             inkscape:connector-curvature="0" />
        </g>
        <g
           id="g3798"
           style="opacity:1;fill:#ffffff">
          <path
             style="color:#000000;font-style:normal;font-variant:normal;font-weight:normal;font-stretch:normal;font-size:medium;line-height:1.25;font-family:'URW Gothic L';-inkscape-font-specification:'URW Gothic L';font-variant-ligatures:normal;font-variant-position:normal;font-variant-caps:normal;font-variant-numeric:normal;font-variant-alternates:normal;font-variant-east-asian:normal;font-feature-settings:normal;font-variation-settings:normal;text-indent:0;text-align:start;text-decoration:none;text-decoration-line:none;text-decoration-style:solid;text-decoration-color:#000000;letter-spacing:0px;word-spacing:0px;text-transform:none;writing-mode:lr-tb;direction:ltr;text-orientation:mixed;dominant-baseline:auto;baseline-shift:baseline;text-anchor:start;white-space:normal;shape-padding:0;shape-margin:0;inline-size:0;clip-rule:nonzero;display:inline;overflow:visible;visibility:visible;isolation:auto;mix-blend-mode:normal;color-interpolation:sRGB;color-interpolation-filters:linearRGB;solid-color:#000000;solid-opacity:1;vector-effect:none;fill:#ffffff;fill-opacity:1;fill-rule:nonzero;stroke:none;stroke-width:0.264583;stroke-linecap:butt;stroke-linejoin:miter;stroke-miterlimit:4;stroke-dasharray:none;stroke-dashoffset:0;stroke-opacity:1;color-rendering:auto;image-rendering:auto;shape-rendering:auto;text-rendering:auto;enable-background:accumulate;stop-color:#000000;stop-opacity:1"
             d="m 103.04163,209.6696 h 1.58939 v -10.30953 h 2.64182 v -1.43904 h -2.64182 v -4.12382 h -1.58939 v 4.12382 h -2.53442 v 1.43904 h 2.53442 z"
             id="path3800"
             inkscape:connector-curvature="0" />
          <path
             style="color:#000000;font-style:normal;font-variant:normal;font-weight:normal;font-stretch:normal;font-size:medium;line-height:1.25;font-family:'URW Gothic L';-inkscape-font-specification:'URW Gothic L';font-variant-ligatures:normal;font-variant-position:normal;font-variant-caps:normal;font-variant-numeric:normal;font-variant-alternates:normal;font-variant-east-asian:normal;font-feature-settings:normal;font-variation-settings:normal;text-indent:0;text-align:start;text-decoration:none;text-decoration-line:none;text-decoration-style:solid;text-decoration-color:#000000;letter-spacing:0px;word-spacing:0px;text-transform:none;writing-mode:lr-tb;direction:ltr;text-orientation:mixed;dominant-baseline:auto;baseline-shift:baseline;text-anchor:start;white-space:normal;shape-padding:0;shape-margin:0;inline-size:0;clip-rule:nonzero;display:inline;overflow:visible;visibility:visible;isolation:auto;mix-blend-mode:normal;color-interpolation:sRGB;color-interpolation-filters:linearRGB;solid-color:#000000;solid-opacity:1;vector-effect:none;fill:#ffffff;fill-opacity:1;fill-rule:nonzero;stroke:none;stroke-width:0.264583;stroke-linecap:butt;stroke-linejoin:miter;stroke-miterlimit:4;stroke-dasharray:none;stroke-dashoffset:0;stroke-opacity:1;color-rendering:auto;image-rendering:auto;shape-rendering:auto;text-rendering:auto;enable-background:accumulate;stop-color:#000000;stop-opacity:1"
             d="m 102.91016,193.66406 v 4.125 H 100.375 v 1.70313 h 2.53516 v 10.31054 h 0.13086 1.72265 v -10.31054 h 2.64063 v -1.70313 h -2.64063 v -4.125 z m 0.26367,0.26563 h 1.32422 v 4.12304 h 2.64257 v 1.17579 h -2.64257 v 10.30859 h -1.32422 v -10.30859 h -2.53516 v -1.17579 h 2.53516 z"
             id="path3802"
             inkscape:connector-curvature="0" />
        </g>
        <g
           id="g3804"
           style="opacity:1;fill:#ffffff">
          <path
             style="color:#000000;font-style:normal;font-variant:normal;font-weight:normal;font-stretch:normal;font-size:medium;line-height:1.25;font-family:'URW Gothic L';-inkscape-font-specification:'URW Gothic L';font-variant-ligatures:normal;font-variant-position:normal;font-variant-caps:normal;font-variant-numeric:normal;font-variant-alternates:normal;font-variant-east-asian:normal;font-feature-settings:normal;font-variation-settings:normal;text-indent:0;text-align:start;text-decoration:none;text-decoration-line:none;text-decoration-style:solid;text-decoration-color:#000000;letter-spacing:0px;word-spacing:0px;text-transform:none;writing-mode:lr-tb;direction:ltr;text-orientation:mixed;dominant-baseline:auto;baseline-shift:baseline;text-anchor:start;white-space:normal;shape-padding:0;shape-margin:0;inline-size:0;clip-rule:nonzero;display:inline;overflow:visible;visibility:visible;isolation:auto;mix-blend-mode:normal;color-interpolation:sRGB;color-interpolation-filters:linearRGB;solid-color:#000000;solid-opacity:1;vector-effect:none;fill:#ffffff;fill-opacity:1;fill-rule:nonzero;stroke:none;stroke-width:0.264583;stroke-linecap:butt;stroke-linejoin:miter;stroke-miterlimit:4;stroke-dasharray:none;stroke-dashoffset:0;stroke-opacity:1;color-rendering:auto;image-rendering:auto;shape-rendering:auto;text-rendering:auto;enable-background:accumulate;stop-color:#000000;stop-opacity:1"
             d="m 119.25432,197.92103 h -1.58939 v 6.03537 c 0,1.43904 -0.21478,2.34112 -0.70878,3.07138 -0.66582,0.92357 -1.71825,1.46052 -2.94251,1.46052 -1.31017,0 -2.42704,-0.53695 -2.96399,-1.482 -0.36513,-0.60139 -0.55844,-1.54643 -0.55844,-2.74921 v -6.33606 h -1.58938 v 6.33606 c 0,1.73974 0.30069,2.964 0.92356,3.82312 0.8806,1.22426 2.29817,1.86861 4.05938,1.86861 1.82565,0 2.98547,-0.64435 3.78016,-2.10487 v 1.82565 h 1.58939 z"
             id="path3806"
             inkscape:connector-curvature="0" />
          <path
             style="color:#000000;font-style:normal;font-variant:normal;font-weight:normal;font-stretch:normal;font-size:medium;line-height:1.25;font-family:'URW Gothic L';-inkscape-font-specification:'URW Gothic L';font-variant-ligatures:normal;font-variant-position:normal;font-variant-caps:normal;font-variant-numeric:normal;font-variant-alternates:normal;font-variant-east-asian:normal;font-feature-settings:normal;font-variation-settings:normal;text-indent:0;text-align:start;text-decoration:none;text-decoration-line:none;text-decoration-style:solid;text-decoration-color:#000000;letter-spacing:0px;word-spacing:0px;text-transform:none;writing-mode:lr-tb;direction:ltr;text-orientation:mixed;dominant-baseline:auto;baseline-shift:baseline;text-anchor:start;white-space:normal;shape-padding:0;shape-margin:0;inline-size:0;clip-rule:nonzero;display:inline;overflow:visible;visibility:visible;isolation:auto;mix-blend-mode:normal;color-interpolation:sRGB;color-interpolation-filters:linearRGB;solid-color:#000000;solid-opacity:1;vector-effect:none;fill:#ffffff;fill-opacity:1;fill-rule:nonzero;stroke:none;stroke-width:0.264583;stroke-linecap:butt;stroke-linejoin:miter;stroke-miterlimit:4;stroke-dasharray:none;stroke-dashoffset:0;stroke-opacity:1;color-rendering:auto;image-rendering:auto;shape-rendering:auto;text-rendering:auto;enable-background:accumulate;stop-color:#000000;stop-opacity:1"
             d="m 108.76953,197.78906 v 6.46875 c 0,1.75499 0.30317,3.0093 0.94922,3.90039 0.90705,1.26104 2.37254,1.92383 4.16602,1.92383 1.70912,0 2.83846,-0.65749 3.64843,-1.91406 v 1.63476 h 1.85352 v -12.01367 h -0.13281 -1.72071 v 6.16797 c 0,1.42588 -0.21186,2.29297 -0.6875,2.99609 -0.64149,0.88749 -1.64802,1.40235 -2.83203,1.40235 -1.27402,0 -2.34095,-0.51881 -2.84961,-1.41406 v -0.002 l -0.002,-0.002 c -0.34397,-0.56654 -0.53906,-1.49108 -0.53906,-2.67969 v -6.46875 z m 0.26367,0.26367 h 1.32618 v 6.20508 c 0,1.21696 0.19183,2.18017 0.57812,2.81641 0.56576,0.99331 1.73095,1.54687 3.07617,1.54687 1.26294,0 2.35856,-0.55814 3.04883,-1.51562 l 0.002,-0.002 0.002,-0.002 c 0.51235,-0.7574 0.73047,-1.69233 0.73047,-3.14453 v -5.9043 h 1.32421 v 11.48438 h -1.32421 v -1.69336 l -0.24805,-0.0625 c -0.77667,1.4274 -1.86954,2.03516 -3.66406,2.03516 -1.72895,0 -3.09703,-0.62502 -3.95118,-1.8125 v -0.002 h -0.002 c -0.59969,-0.82714 -0.89844,-2.01964 -0.89844,-3.74414 z"
             id="path3808"
             inkscape:connector-curvature="0" />
        </g>
        <g
           id="g3810"
           style="opacity:1;fill:#ffffff">
          <path
             style="color:#000000;font-style:normal;font-variant:normal;font-weight:normal;font-stretch:normal;font-size:medium;line-height:1.25;font-family:'URW Gothic L';-inkscape-font-specification:'URW Gothic L';font-variant-ligatures:normal;font-variant-position:normal;font-variant-caps:normal;font-variant-numeric:normal;font-variant-alternates:normal;font-variant-east-asian:normal;font-feature-settings:normal;font-variation-settings:normal;text-indent:0;text-align:start;text-decoration:none;text-decoration-line:none;text-decoration-style:solid;text-decoration-color:#000000;letter-spacing:0px;word-spacing:0px;text-transform:none;writing-mode:lr-tb;direction:ltr;text-orientation:mixed;dominant-baseline:auto;baseline-shift:baseline;text-anchor:start;white-space:normal;shape-padding:0;shape-margin:0;inline-size:0;clip-rule:nonzero;display:inline;overflow:visible;visibility:visible;isolation:auto;mix-blend-mode:normal;color-interpolation:sRGB;color-interpolation-filters:linearRGB;solid-color:#000000;solid-opacity:1;vector-effect:none;fill:#ffffff;fill-opacity:1;fill-rule:nonzero;stroke:none;stroke-width:0.264583;stroke-linecap:butt;stroke-linejoin:miter;stroke-miterlimit:4;stroke-dasharray:none;stroke-dashoffset:0;stroke-opacity:1;color-rendering:auto;image-rendering:auto;shape-rendering:auto;text-rendering:auto;enable-background:accumulate;stop-color:#000000;stop-opacity:1"
             d="m 133.95447,193.79721 h -1.58939 v 5.99242 c -1.15982,-1.39608 -2.77068,-2.14782 -4.61781,-2.14782 -3.5439,0 -6.25016,2.6633 -6.25016,6.16424 0,3.47947 2.77069,6.14277 6.40051,6.14277 1.95451,0 3.28616,-0.70878 4.46746,-2.40556 v 2.12634 h 1.58939 z m -6.25016,5.30512 c 2.59887,0 4.72521,2.08338 4.72521,4.66077 0,2.57738 -2.06191,4.7252 -4.57486,4.7252 -2.68477,0 -4.74668,-2.06191 -4.74668,-4.74668 0,-2.57739 2.04043,-4.63929 4.59633,-4.63929 z"
             id="path3812"
             inkscape:connector-curvature="0" />
          <path
             style="color:#000000;font-style:normal;font-variant:normal;font-weight:normal;font-stretch:normal;font-size:medium;line-height:1.25;font-family:'URW Gothic L';-inkscape-font-specification:'URW Gothic L';font-variant-ligatures:normal;font-variant-position:normal;font-variant-caps:normal;font-variant-numeric:normal;font-variant-alternates:normal;font-variant-east-asian:normal;font-feature-settings:normal;font-variation-settings:normal;text-indent:0;text-align:start;text-decoration:none;text-decoration-line:none;text-decoration-style:solid;text-decoration-color:#000000;letter-spacing:0px;word-spacing:0px;text-transform:none;writing-mode:lr-tb;direction:ltr;text-orientation:mixed;dominant-baseline:auto;baseline-shift:baseline;text-anchor:start;white-space:normal;shape-padding:0;shape-margin:0;inline-size:0;clip-rule:nonzero;display:inline;overflow:visible;visibility:visible;isolation:auto;mix-blend-mode:normal;color-interpolation:sRGB;color-interpolation-filters:linearRGB;solid-color:#000000;solid-opacity:1;vector-effect:none;fill:#ffffff;fill-opacity:1;fill-rule:nonzero;stroke:none;stroke-width:0.264583;stroke-linecap:butt;stroke-linejoin:miter;stroke-miterlimit:4;stroke-dasharray:none;stroke-dashoffset:0;stroke-opacity:1;color-rendering:auto;image-rendering:auto;shape-rendering:auto;text-rendering:auto;enable-background:accumulate;stop-color:#000000;stop-opacity:1"
             d="m 132.23242,193.66406 v 5.85938 c -1.16615,-1.27584 -2.70637,-2.01367 -4.48437,-2.01367 -3.61018,0 -6.38282,2.72776 -6.38282,6.29687 0,3.5497 2.83868,6.27539 6.53321,6.27539 1.86572,0 3.18527,-0.72916 4.33398,-2.23437 v 1.95507 h 1.85352 v -16.13867 h -0.13086 z m 0.26563,0.26563 h 1.32422 v 15.60742 h -1.32422 v -2.41602 l -0.24219,0.34571 c -1.16453,1.67269 -2.4349,2.34961 -4.35742,2.34961 -3.56511,0 -6.26953,-2.60053 -6.26953,-6.00977 0,-3.43276 2.64152,-6.0332 6.11914,-6.0332 1.81123,0 3.37936,0.73384 4.51562,2.10156 l 0.23438,0.28125 z m -4.79297,5.04101 c -2.62705,0 -4.72852,2.12428 -4.72852,4.77149 0,2.7525 2.12641,4.8789 4.87891,4.8789 2.58833,0 4.70703,-2.20948 4.70703,-4.85742 0,-2.65015 -2.18785,-4.79297 -4.85742,-4.79297 z m 0,0.26368 c 2.52817,-10e-6 4.5918,2.02466 4.5918,4.52929 0,2.50683 -2.00384,4.5918 -4.44141,4.5918 -2.61704,0 -4.61524,-1.99625 -4.61524,-4.61328 0,-2.50757 1.9801,-4.50781 4.46485,-4.50781 z"
             id="path3814"
             inkscape:connector-curvature="0" />
        </g>
        <g
           id="g3816"
           style="opacity:1;fill:#ffffff">
          <path
             style="color:#000000;font-style:normal;font-variant:normal;font-weight:normal;font-stretch:normal;font-size:medium;line-height:1.25;font-family:'URW Gothic L';-inkscape-font-specification:'URW Gothic L';font-variant-ligatures:normal;font-variant-position:normal;font-variant-caps:normal;font-variant-numeric:normal;font-variant-alternates:normal;font-variant-east-asian:normal;font-feature-settings:normal;font-variation-settings:normal;text-indent:0;text-align:start;text-decoration:none;text-decoration-line:none;text-decoration-style:solid;text-decoration-color:#000000;letter-spacing:0px;word-spacing:0px;text-transform:none;writing-mode:lr-tb;direction:ltr;text-orientation:mixed;dominant-baseline:auto;baseline-shift:baseline;text-anchor:start;white-space:normal;shape-padding:0;shape-margin:0;inline-size:0;clip-rule:nonzero;display:inline;overflow:visible;visibility:visible;isolation:auto;mix-blend-mode:normal;color-interpolation:sRGB;color-interpolation-filters:linearRGB;solid-color:#000000;solid-opacity:1;vector-effect:none;fill:#ffffff;fill-opacity:1;fill-rule:nonzero;stroke:none;stroke-width:0.264583;stroke-linecap:butt;stroke-linejoin:miter;stroke-miterlimit:4;stroke-dasharray:none;stroke-dashoffset:0;stroke-opacity:1;color-rendering:auto;image-rendering:auto;shape-rendering:auto;text-rendering:auto;enable-background:accumulate;stop-color:#000000;stop-opacity:1"
             d="m 136.67247,209.6696 h 1.58938 v -11.74857 h -1.58938 z m 0,-13.16614 h 1.58938 v -2.70625 h -1.58938 z"
             id="path3818"
             inkscape:connector-curvature="0" />
          <path
             style="color:#000000;font-style:normal;font-variant:normal;font-weight:normal;font-stretch:normal;font-size:medium;line-height:1.25;font-family:'URW Gothic L';-inkscape-font-specification:'URW Gothic L';font-variant-ligatures:normal;font-variant-position:normal;font-variant-caps:normal;font-variant-numeric:normal;font-variant-alternates:normal;font-variant-east-asian:normal;font-feature-settings:normal;font-variation-settings:normal;text-indent:0;text-align:start;text-decoration:none;text-decoration-line:none;text-decoration-style:solid;text-decoration-color:#000000;letter-spacing:0px;word-spacing:0px;text-transform:none;writing-mode:lr-tb;direction:ltr;text-orientation:mixed;dominant-baseline:auto;baseline-shift:baseline;text-anchor:start;white-space:normal;shape-padding:0;shape-margin:0;inline-size:0;clip-rule:nonzero;display:inline;overflow:visible;visibility:visible;isolation:auto;mix-blend-mode:normal;color-interpolation:sRGB;color-interpolation-filters:linearRGB;solid-color:#000000;solid-opacity:1;vector-effect:none;fill:#ffffff;fill-opacity:1;fill-rule:nonzero;stroke:none;stroke-width:0.264583;stroke-linecap:butt;stroke-linejoin:miter;stroke-miterlimit:4;stroke-dasharray:none;stroke-dashoffset:0;stroke-opacity:1;color-rendering:auto;image-rendering:auto;shape-rendering:auto;text-rendering:auto;enable-background:accumulate;stop-color:#000000;stop-opacity:1"
             d="m 136.54102,193.66406 v 2.97266 h 0.13086 1.72265 v -2.97266 z m 0.26367,0.26563 h 1.32422 v 2.4414 h -1.32422 z m -0.26367,3.85937 v 12.01367 h 0.13086 1.72265 v -12.01367 z m 0.26367,0.26367 h 1.32422 v 11.48438 h -1.32422 z"
             id="path3820"
             inkscape:connector-curvature="0" />
        </g>
        <g
           id="g3822"
           style="opacity:1;fill:#ffffff">
          <path
             style="color:#000000;font-style:normal;font-variant:normal;font-weight:normal;font-stretch:normal;font-size:medium;line-height:1.25;font-family:'URW Gothic L';-inkscape-font-specification:'URW Gothic L';font-variant-ligatures:normal;font-variant-position:normal;font-variant-caps:normal;font-variant-numeric:normal;font-variant-alternates:normal;font-variant-east-asian:normal;font-feature-settings:normal;font-variation-settings:normal;text-indent:0;text-align:start;text-decoration:none;text-decoration-line:none;text-decoration-style:solid;text-decoration-color:#000000;letter-spacing:0px;word-spacing:0px;text-transform:none;writing-mode:lr-tb;direction:ltr;text-orientation:mixed;dominant-baseline:auto;baseline-shift:baseline;text-anchor:start;white-space:normal;shape-padding:0;shape-margin:0;inline-size:0;clip-rule:nonzero;display:inline;overflow:visible;visibility:visible;isolation:auto;mix-blend-mode:normal;color-interpolation:sRGB;color-interpolation-filters:linearRGB;solid-color:#000000;solid-opacity:1;vector-effect:none;fill:#ffffff;fill-opacity:1;fill-rule:nonzero;stroke:none;stroke-width:0.264583;stroke-linecap:butt;stroke-linejoin:miter;stroke-miterlimit:4;stroke-dasharray:none;stroke-dashoffset:0;stroke-opacity:1;color-rendering:auto;image-rendering:auto;shape-rendering:auto;text-rendering:auto;enable-background:accumulate;stop-color:#000000;stop-opacity:1"
             d="m 146.66453,197.64181 c -3.47947,0 -6.16424,2.64182 -6.16424,6.07833 0,3.60834 2.64182,6.22868 6.29311,6.22868 3.43651,0 5.97094,-2.59886 5.97094,-6.12129 0,-3.58686 -2.57738,-6.18572 -6.09981,-6.18572 z m 0,1.46052 c 2.57738,0 4.48894,2.01895 4.48894,4.74668 0,2.68477 -1.84712,4.63929 -4.40303,4.63929 -2.70625,0 -4.63929,-1.97599 -4.63929,-4.7252 0,-2.6633 1.95452,-4.66077 4.55338,-4.66077 z"
             id="path3824"
             inkscape:connector-curvature="0" />
          <path
             style="color:#000000;font-style:normal;font-variant:normal;font-weight:normal;font-stretch:normal;font-size:medium;line-height:1.25;font-family:'URW Gothic L';-inkscape-font-specification:'URW Gothic L';font-variant-ligatures:normal;font-variant-position:normal;font-variant-caps:normal;font-variant-numeric:normal;font-variant-alternates:normal;font-variant-east-asian:normal;font-feature-settings:normal;font-variation-settings:normal;text-indent:0;text-align:start;text-decoration:none;text-decoration-line:none;text-decoration-style:solid;text-decoration-color:#000000;letter-spacing:0px;word-spacing:0px;text-transform:none;writing-mode:lr-tb;direction:ltr;text-orientation:mixed;dominant-baseline:auto;baseline-shift:baseline;text-anchor:start;white-space:normal;shape-padding:0;shape-margin:0;inline-size:0;clip-rule:nonzero;display:inline;overflow:visible;visibility:visible;isolation:auto;mix-blend-mode:normal;color-interpolation:sRGB;color-interpolation-filters:linearRGB;solid-color:#000000;solid-opacity:1;vector-effect:none;fill:#ffffff;fill-opacity:1;fill-rule:nonzero;stroke:none;stroke-width:0.264583;stroke-linecap:butt;stroke-linejoin:miter;stroke-miterlimit:4;stroke-dasharray:none;stroke-dashoffset:0;stroke-opacity:1;color-rendering:auto;image-rendering:auto;shape-rendering:auto;text-rendering:auto;enable-background:accumulate;stop-color:#000000;stop-opacity:1"
             d="m 146.66406,197.50977 c -3.54643,0 -6.29687,2.70552 -6.29687,6.21093 0,3.67291 2.7112,6.36133 6.42578,6.36133 3.50321,0 6.10351,-2.66802 6.10351,-6.25391 0,-3.65023 -2.64492,-6.31835 -6.23242,-6.31835 z m 0,0.26367 c 3.45736,0 5.96875,2.5312 5.96875,6.05468 0,3.45898 -2.47003,5.98829 -5.83984,5.98829 -3.588,0 -6.16016,-2.55194 -6.16016,-6.09571 0,-3.36761 2.61874,-5.94726 6.03125,-5.94726 z m 0,1.19726 c -2.66664,0 -4.68554,2.06495 -4.68554,4.79297 0,2.81122 2.00083,4.85742 4.77148,4.85742 2.62335,0 4.53516,-2.02603 4.53516,-4.77148 0,-2.78954 -1.97463,-4.87891 -4.6211,-4.87891 z m 0,0.26368 c 2.5083,0 4.35742,1.9493 4.35742,4.61523 0,2.62409 -1.78301,4.50586 -4.27148,4.50586 -2.64185,0 -4.50586,-1.9046 -4.50586,-4.5918 0,-2.59857 1.88885,-4.5293 4.41992,-4.52929 z"
             id="path3826"
             inkscape:connector-curvature="0" />
        </g>
      </g>
    </g>
  </g>
</svg>
