<?xml version="1.0" encoding="UTF-8" standalone="no"?>
<!-- Generator: Adobe Illustrator 16.0.3, SVG Export Plug-In . SVG Version: 6.00 Build 0)  -->

<svg
   xmlns:dc="http://purl.org/dc/elements/1.1/"
   xmlns:cc="http://creativecommons.org/ns#"
   xmlns:rdf="http://www.w3.org/1999/02/22-rdf-syntax-ns#"
   xmlns:svg="http://www.w3.org/2000/svg"
   xmlns="http://www.w3.org/2000/svg"
   xmlns:sodipodi="http://sodipodi.sourceforge.net/DTD/sodipodi-0.dtd"
   xmlns:inkscape="http://www.inkscape.org/namespaces/inkscape"
   version="1.1"
   id="Layer_1"
   x="0px"
   y="0px"
   width="16px"
   height="16px"
   viewBox="0 0 16 16"
   enable-background="new 0 0 16 16"
   xml:space="preserve"
   sodipodi:docname="twitter.svg"
   inkscape:version="0.92.1 r15371"><metadata
     id="metadata9"><rdf:RDF><cc:Work
         rdf:about=""><dc:format>image/svg+xml</dc:format><dc:type
           rdf:resource="http://purl.org/dc/dcmitype/StillImage" /><dc:title></dc:title></cc:Work></rdf:RDF></metadata><defs
     id="defs7" /><sodipodi:namedview
     pagecolor="#ffffff"
     bordercolor="#666666"
     borderopacity="1"
     objecttolerance="10"
     gridtolerance="10"
     guidetolerance="10"
     inkscape:pageopacity="0"
     inkscape:pageshadow="2"
     inkscape:window-width="1366"
     inkscape:window-height="674"
     id="namedview5"
     showgrid="false"
     inkscape:zoom="14.75"
     inkscape:cx="8"
     inkscape:cy="8"
     inkscape:window-x="0"
     inkscape:window-y="0"
     inkscape:window-maximized="1"
     inkscape:current-layer="Layer_1" /><path
     d="M 6.5459999,11.186 C 9.5050001,11.186 11.122,8.735 11.122,6.609 11.122,6.539 11.121,6.47 11.117,6.401 11.431,6.174 11.704,5.89 11.92,5.568 11.632,5.696 11.321,5.782 10.996,5.821 11.328,5.622 11.583,5.307 11.703,4.931 11.393,5.115 11.049,5.249 10.682,5.322 10.388,5.01 9.9720001,4.814 9.5080001,4.814 c -0.888,0 -1.6080002,0.721 -1.6080002,1.608 0,0.126 0.014,0.249 0.042,0.368 -1.338,-0.068 -2.524,-0.708 -3.316,-1.681 -0.138,0.238 -0.218,0.514 -0.218,0.808 0,0.558 0.283,1.05 0.716,1.339 -0.264,-0.008 -0.512,-0.081 -0.728,-0.201 0,0.007 0,0.013 0,0.02 0,0.78 0.555,1.431 1.29,1.577 -0.135,0.037 -0.278,0.057 -0.425,0.057 -0.104,0 -0.204,-0.012 -0.302,-0.03 0.205,0.64 0.799,1.104 1.502,1.118 -0.55,0.432 -1.244,0.688 -1.998,0.688 -0.13,0 -0.257,-0.008 -0.384,-0.022 0.713,0.456 1.558,0.723 2.467,0.723 M 7.9999999,1 C 11.866,1 15,4.134 15,8 c 0,3.865 -3.134,7 -7.0000001,7 -3.866,0 -7,-3.135 -7,-7 0,-3.866 3.134,-7 7,-7 z"
     id="path2"
     inkscape:connector-curvature="0"
     style="clip-rule:evenodd;fill:#ffffff;fill-rule:evenodd" /></svg>