<?xml version="1.0" encoding="UTF-8" standalone="no"?>
<svg
   xmlns:dc="http://purl.org/dc/elements/1.1/"
   xmlns:cc="http://creativecommons.org/ns#"
   xmlns:rdf="http://www.w3.org/1999/02/22-rdf-syntax-ns#"
   xmlns:svg="http://www.w3.org/2000/svg"
   xmlns="http://www.w3.org/2000/svg"
   xmlns:sodipodi="http://sodipodi.sourceforge.net/DTD/sodipodi-0.dtd"
   xmlns:inkscape="http://www.inkscape.org/namespaces/inkscape"
   sodipodi:docname="twitter.svg"
   inkscape:version="1.0beta1 (fe3e306, 2019-09-17)"
   id="svg2362"
   version="1.1"
   viewBox="0 0 22.577778 22.577778"
   height="64pt"
   width="64pt">
  <defs
     id="defs2356" />
  <sodipodi:namedview
     inkscape:window-maximized="1"
     inkscape:window-y="0"
     inkscape:window-x="0"
     inkscape:window-height="685"
     inkscape:window-width="1366"
     units="pt"
     showgrid="false"
     inkscape:document-rotation="0"
     inkscape:current-layer="layer1"
     inkscape:document-units="mm"
     inkscape:cy="33.149734"
     inkscape:cx="18.392377"
     inkscape:zoom="2.8"
     inkscape:pageshadow="2"
     inkscape:pageopacity="0.0"
     borderopacity="1.0"
     bordercolor="#666666"
     pagecolor="#ffffff"
     id="base" />
  <metadata
     id="metadata2359">
    <rdf:RDF>
      <cc:Work
         rdf:about="">
        <dc:format>image/svg+xml</dc:format>
        <dc:type
           rdf:resource="http://purl.org/dc/dcmitype/StillImage" />
        <dc:title></dc:title>
      </cc:Work>
    </rdf:RDF>
  </metadata>
  <g
     id="layer1"
     inkscape:groupmode="layer"
     inkscape:label="Layer 1">
    <g
       style="stroke-width:0.164063"
       transform="matrix(6.0952375,0,0,6.0952375,-301.41984,-382.94635)"
       id="g2993">
      <path
         id="path2221"
         d="m 51.30378,62.827142 c 1.02288,0 1.852084,0.829204 1.852084,1.852084 0,1.022614 -0.829204,1.852083 -1.852084,1.852083 -1.022879,0 -1.852083,-0.829469 -1.852083,-1.852083 0,-1.02288 0.829204,-1.852084 1.852083,-1.852084 z"
         style="clip-rule:evenodd;opacity:1;fill:#17bc6a;fill-opacity:1;fill-rule:evenodd;stroke:none;stroke-width:0.00868165;stroke-miterlimit:4;stroke-dasharray:none;stop-opacity:1"
         inkscape:connector-curvature="0" />
      <path
         id="path2"
         d="m 50.919076,65.522188 c 0.782902,0 1.210734,-0.648494 1.210734,-1.210998 0,-0.01852 -2.65e-4,-0.03678 -0.0013,-0.05503 0.08308,-0.06006 0.15531,-0.135202 0.21246,-0.220398 -0.0762,0.03387 -0.158485,0.05662 -0.244475,0.06694 0.08784,-0.05265 0.155307,-0.135995 0.187057,-0.235479 -0.08202,0.04868 -0.173037,0.08414 -0.270139,0.103453 -0.07779,-0.08255 -0.187854,-0.134409 -0.310621,-0.134409 -0.23495,0 -0.42545,0.190765 -0.42545,0.42545 0,0.03334 0.0037,0.06588 0.01111,0.09737 -0.354012,-0.01799 -0.667808,-0.187325 -0.877358,-0.444764 -0.03651,0.06297 -0.05768,0.135995 -0.05768,0.213783 0,0.147637 0.07488,0.277812 0.189441,0.354277 -0.06985,-0.0021 -0.135466,-0.02143 -0.192616,-0.05318 0,0.0018 0,0.0034 0,0.0053 0,0.206375 0.146844,0.378619 0.341312,0.417248 -0.03572,0.0098 -0.07355,0.01508 -0.112448,0.01508 -0.02752,0 -0.05398,-0.0032 -0.0799,-0.0079 0.05424,0.169333 0.211402,0.2921 0.397405,0.295804 -0.145521,0.1143 -0.329142,0.182033 -0.528638,0.182033 -0.0344,0 -0.068,-0.0021 -0.1016,-0.0058 0.188648,0.12065 0.412221,0.191294 0.652727,0.191294"
         style="clip-rule:evenodd;opacity:1;fill:#ffffff;fill-opacity:1;fill-rule:evenodd;stroke:none;stroke-width:0.00868165;stroke-miterlimit:4;stroke-dasharray:none;stop-opacity:1"
         inkscape:connector-curvature="0" />
    </g>
  </g>
</svg>
