<?xml version="1.0" encoding="UTF-8" standalone="no"?>
<svg
   xmlns:dc="http://purl.org/dc/elements/1.1/"
   xmlns:cc="http://creativecommons.org/ns#"
   xmlns:rdf="http://www.w3.org/1999/02/22-rdf-syntax-ns#"
   xmlns:svg="http://www.w3.org/2000/svg"
   xmlns="http://www.w3.org/2000/svg"
   xmlns:sodipodi="http://sodipodi.sourceforge.net/DTD/sodipodi-0.dtd"
   xmlns:inkscape="http://www.inkscape.org/namespaces/inkscape"
   sodipodi:docname="wa.svg"
   inkscape:version="1.0beta1 (fe3e306, 2019-09-17)"
   id="svg2362"
   version="1.1"
   viewBox="0 0 22.577778 22.577778"
   height="64pt"
   width="64pt">
  <defs
     id="defs2356" />
  <sodipodi:namedview
     inkscape:window-maximized="1"
     inkscape:window-y="0"
     inkscape:window-x="0"
     inkscape:window-height="685"
     inkscape:window-width="1366"
     units="pt"
     showgrid="false"
     inkscape:document-rotation="0"
     inkscape:current-layer="layer1"
     inkscape:document-units="mm"
     inkscape:cy="33.149734"
     inkscape:cx="18.392377"
     inkscape:zoom="2.8"
     inkscape:pageshadow="2"
     inkscape:pageopacity="0.0"
     borderopacity="1.0"
     bordercolor="#666666"
     pagecolor="#ffffff"
     id="base" />
  <metadata
     id="metadata2359">
    <rdf:RDF>
      <cc:Work
         rdf:about="">
        <dc:format>image/svg+xml</dc:format>
        <dc:type
           rdf:resource="http://purl.org/dc/dcmitype/StillImage" />
        <dc:title></dc:title>
      </cc:Work>
    </rdf:RDF>
  </metadata>
  <g
     id="layer1"
     inkscape:groupmode="layer"
     inkscape:label="Layer 1">
    <g
       style="stroke-width:0.164063"
       transform="matrix(6.0952375,0,0,6.0952375,-330.80164,-382.94635)"
       id="g2989">
      <path
         id="path11"
         d="m 56.124233,62.827142 c -1.02288,0 -1.852084,0.829204 -1.852084,1.852084 0,1.022614 0.829204,1.852083 1.852084,1.852083 1.022879,0 1.852083,-0.829469 1.852083,-1.852083 0,-1.02288 -0.829204,-1.852084 -1.852083,-1.852084 z"
         style="clip-rule:evenodd;opacity:1;fill:#17bc6a;fill-opacity:1;fill-rule:evenodd;stroke:none;stroke-width:0.00868165;stroke-miterlimit:4;stroke-dasharray:none;stop-opacity:1"
         inkscape:connector-curvature="0" />
      <path
         d="m 56.124474,63.641687 c -0.567796,0 -1.027844,0.460313 -1.027844,1.027845 0,0.192087 0.05238,0.371057 0.14366,0.524515 l -0.129191,0.522966 0.515214,-0.148312 c 0.147638,0.08176 0.317451,0.128675 0.498161,0.128675 0.567796,0 1.027844,-0.460049 1.027844,-1.027844 0,-0.567796 -0.460048,-1.027845 -1.027844,-1.027845 z m -0.313159,0.550354 c 0.01849,0.0027 0.03588,0.01118 0.04858,0.02481 0.01878,0.02011 0.03561,0.06767 0.04858,0.101803 0.0071,0.01879 0.01508,0.03754 0.02222,0.05633 0.01138,0.02884 0.02278,0.06127 0.02119,0.09302 -0.0016,0.03334 -0.03157,0.05578 -0.05168,0.07906 l -0.03566,0.04134 c 0.08149,0.2286 0.387573,0.341065 0.387573,0.341065 0.02381,-0.02461 0.04828,-0.04903 0.07183,-0.0739 0.01799,-0.01958 0.0371,-0.04375 0.06356,-0.05116 0.03625,-0.0098 0.07239,0.01281 0.10387,0.02842 0.03625,0.01799 0.06489,0.03471 0.09664,0.05323 0.02487,0.01402 0.04621,0.03418 0.04806,0.06408 0.0021,0.03096 -0.0064,0.07143 -0.01912,0.09973 -0.05821,0.131762 -0.275436,0.100768 -0.275436,0.100768 -0.605102,-0.112447 -0.725537,-0.659391 -0.725537,-0.659391 -0.06191,-0.194204 0.140043,-0.290938 0.140043,-0.290938 0.01733,-0.0083 0.03681,-0.01098 0.05529,-0.0083 z"
         style="clip-rule:evenodd;opacity:1;fill:#ffffff;fill-opacity:1;fill-rule:evenodd;stroke:none;stroke-width:0.00868165;stroke-miterlimit:4;stroke-dasharray:none;stop-opacity:1"
         id="path2225"
         inkscape:connector-curvature="0" />
    </g>
  </g>
</svg>
