<?xml version="1.0" encoding="UTF-8" standalone="no"?>
<!-- Generator: Adobe Illustrator 16.0.3, SVG Export Plug-In . SVG Version: 6.00 Build 0)  -->

<svg
   xmlns:dc="http://purl.org/dc/elements/1.1/"
   xmlns:cc="http://creativecommons.org/ns#"
   xmlns:rdf="http://www.w3.org/1999/02/22-rdf-syntax-ns#"
   xmlns:svg="http://www.w3.org/2000/svg"
   xmlns="http://www.w3.org/2000/svg"
   xmlns:sodipodi="http://sodipodi.sourceforge.net/DTD/sodipodi-0.dtd"
   xmlns:inkscape="http://www.inkscape.org/namespaces/inkscape"
   version="1.1"
   id="Layer_1"
   x="0px"
   y="0px"
   width="16px"
   height="16px"
   viewBox="0 0 16 16"
   enable-background="new 0 0 16 16"
   xml:space="preserve"
   sodipodi:docname="wa.svg"
   inkscape:version="0.92.1 r15371"><metadata
     id="metadata9"><rdf:RDF><cc:Work
         rdf:about=""><dc:format>image/svg+xml</dc:format><dc:type
           rdf:resource="http://purl.org/dc/dcmitype/StillImage" /><dc:title></dc:title></cc:Work></rdf:RDF></metadata><defs
     id="defs7" /><sodipodi:namedview
     pagecolor="#ffffff"
     bordercolor="#666666"
     borderopacity="1"
     objecttolerance="10"
     gridtolerance="10"
     guidetolerance="10"
     inkscape:pageopacity="0"
     inkscape:pageshadow="2"
     inkscape:window-width="1366"
     inkscape:window-height="674"
     id="namedview5"
     showgrid="false"
     inkscape:zoom="14.75"
     inkscape:cx="8"
     inkscape:cy="8"
     inkscape:window-x="0"
     inkscape:window-y="0"
     inkscape:window-maximized="1"
     inkscape:current-layer="Layer_1" /><path
     id="path11"
     d="m 7.9999999,4.079 c -2.146,0 -3.885,1.739 -3.885,3.884 0,0.726 0.199,1.403 0.544,1.983 l -0.489,1.975 1.947,-0.56 c 0.558,0.309 1.2,0.486 1.883,0.486 C 10.146,11.847 11.885,10.108 11.885,7.962 11.885,5.816 10.146,4.079 7.9999999,4.079 m -0.982,3.577 c 0.045,-0.052 0.09,-0.104 0.135,-0.156 0.076,-0.088 0.189,-0.173 0.195,-0.299 0.006,-0.12 -0.038,-0.242 -0.081,-0.351 -0.027,-0.071 -0.056,-0.142 -0.083,-0.213 -0.049,-0.129 -0.113,-0.31 -0.184,-0.386 -0.096,-0.103 -0.262,-0.124 -0.393,-0.061 0,0 -0.762,0.366 -0.528,1.1 0,0 0.455,2.066 2.742,2.491 0,0 0.82,0.117 1.04,-0.381 0.048,-0.107 0.08,-0.259 0.072,-0.376 -0.007,-0.113 -0.087,-0.189 -0.181,-0.242 -0.12,-0.07 -0.228,-0.134 -0.365,-0.202 -0.119,-0.059 -0.256,-0.145 -0.393,-0.108 -0.1,0.028 -0.173,0.12 -0.241,0.194 -0.089,0.094 -0.18,0.187 -0.27,0.28 0,0 -1.157,-0.426 -1.465,-1.29 z m 1.026,3.548 c -0.679,0 -1.308,-0.211 -1.827,-0.568 l -1.108,0.319 0.283,-1.143 c -0.361,-0.52 -0.573,-1.152 -0.573,-1.834 0,-1.781 1.443,-3.225 3.225,-3.225 1.782,0 3.2250001,1.443 3.2250001,3.225 0,1.782 -1.4440001,3.226 -3.2250001,3.226 z M 7.9999999,1 C 11.866,1 15,4.134 15,8 c 0,3.865 -3.134,7 -7.0000001,7 -3.866,0 -7,-3.135 -7,-7 0,-3.866 3.134,-7 7,-7 z"
     inkscape:connector-curvature="0"
     style="clip-rule:evenodd;fill:#ffffff;fill-rule:evenodd" /></svg>